<svg xmlns="http://www.w3.org/2000/svg" xmlns:xlink="http://www.w3.org/1999/xlink" version="1.1" width="256" height="256" viewBox="0 0 256 256" xml:space="preserve">

<defs>
</defs>
<g style="stroke: none; stroke-width: 0; stroke-dasharray: none; stroke-linecap: butt; stroke-linejoin: miter; stroke-miterlimit: 10; fill: none; fill-rule: nonzero; opacity: 1;" transform="translate(1.4065934065934016 1.4065934065934016) scale(2.81 2.81)" >
	<path d="M 87.429 30 C 81.254 12.534 64.611 0.015 45.034 0 h -0.068 C 25.389 0.015 8.745 12.534 2.571 30 C 0.911 34.693 0 39.739 0 45 c 0 5.261 0.912 10.308 2.571 15 C 8.75 77.476 25.408 90 45 90 s 36.25 -12.524 42.429 -30 C 89.088 55.307 90 50.261 90 45 C 90 39.739 89.089 34.693 87.429 30 z" style="stroke: none; stroke-width: 1; stroke-dasharray: none; stroke-linecap: butt; stroke-linejoin: miter; stroke-miterlimit: 10; fill: rgb(236,0,21); fill-rule: nonzero; opacity: 1;" transform=" matrix(1 0 0 1 0 0) " stroke-linecap="round" />
	<path d="M 58.997 67.302 l -13.939 -10.41 L 31.187 67.404 l 5.159 -17.082 L 22.5 39.774 l 17.13 -0.147 l 5.313 -17.031 l 5.427 16.992 L 67.5 39.61 L 53.725 50.258 l 5.273 17.045 L 58.997 67.302 z" style="stroke: none; stroke-width: 1; stroke-dasharray: none; stroke-linecap: butt; stroke-linejoin: miter; stroke-miterlimit: 10; fill: rgb(255,255,0); fill-rule: nonzero; opacity: 1;" transform=" matrix(1 0 0 1 0 0) " stroke-linecap="round" />
</g>
</svg>