<svg xmlns="http://www.w3.org/2000/svg" xmlns:xlink="http://www.w3.org/1999/xlink" width="1200" zoomAndPan="magnify" viewBox="0 0 900 449.999984" height="600" preserveAspectRatio="xMidYMid meet" version="1.0"><defs><g/><clipPath id="97589935c1"><path d="M 325.429688 132.78125 L 385 132.78125 L 385 179.261719 L 325.429688 179.261719 Z M 325.429688 132.78125 " clip-rule="nonzero"/></clipPath><clipPath id="2cd8510ff8"><path d="M 332.6875 140.402344 L 377.6875 140.402344 L 377.6875 179.402344 L 332.6875 179.402344 Z M 332.6875 140.402344 " clip-rule="nonzero"/></clipPath><clipPath id="effa586dfc"><path d="M 651 201 L 719.800781 201 L 719.800781 389 L 651 389 Z M 651 201 " clip-rule="nonzero"/></clipPath></defs><g fill="#ffffff" fill-opacity="1"><g transform="translate(251.600225, 194.064066)"><g><path d="M 39.640625 -73.9375 C 43.742188 -73.9375 47.800781 -73.46875 51.8125 -72.53125 C 55.832031 -71.601562 58.820312 -70.675781 60.78125 -69.75 L 63.71875 -68.34375 L 55.59375 -52.09375 C 50 -55.082031 44.679688 -56.578125 39.640625 -56.578125 C 36.835938 -56.578125 34.851562 -56.273438 33.6875 -55.671875 C 32.519531 -55.066406 31.9375 -53.921875 31.9375 -52.234375 C 31.9375 -51.859375 31.976562 -51.484375 32.0625 -51.109375 C 32.15625 -50.742188 32.34375 -50.394531 32.625 -50.0625 C 32.90625 -49.738281 33.160156 -49.457031 33.390625 -49.21875 C 33.628906 -48.988281 34.03125 -48.734375 34.59375 -48.453125 C 35.15625 -48.171875 35.597656 -47.957031 35.921875 -47.8125 C 36.242188 -47.675781 36.78125 -47.46875 37.53125 -47.1875 C 38.28125 -46.914062 38.835938 -46.707031 39.203125 -46.5625 C 39.578125 -46.425781 40.207031 -46.21875 41.09375 -45.9375 C 41.988281 -45.65625 42.671875 -45.46875 43.140625 -45.375 C 46.023438 -44.53125 48.539062 -43.59375 50.6875 -42.5625 C 52.84375 -41.539062 55.109375 -40.144531 57.484375 -38.375 C 59.867188 -36.601562 61.710938 -34.363281 63.015625 -31.65625 C 64.328125 -28.945312 64.984375 -25.863281 64.984375 -22.40625 C 64.984375 -6.070312 53.640625 2.09375 30.953125 2.09375 C 25.816406 2.09375 20.9375 1.300781 16.3125 -0.28125 C 11.695312 -1.863281 8.359375 -3.453125 6.296875 -5.046875 L 3.21875 -7.5625 L 13.296875 -24.515625 C 14.046875 -23.859375 15.023438 -23.082031 16.234375 -22.1875 C 17.453125 -21.300781 19.648438 -20.085938 22.828125 -18.546875 C 26.003906 -17.015625 28.757812 -16.25 31.09375 -16.25 C 36.226562 -16.25 38.796875 -17.972656 38.796875 -21.421875 C 38.796875 -23.015625 38.140625 -24.253906 36.828125 -25.140625 C 35.523438 -26.023438 33.304688 -27.023438 30.171875 -28.140625 C 27.046875 -29.265625 24.597656 -30.296875 22.828125 -31.234375 C 18.347656 -33.566406 14.800781 -36.203125 12.1875 -39.140625 C 9.570312 -42.078125 8.265625 -45.976562 8.265625 -50.84375 C 8.265625 -58.125 11.085938 -63.789062 16.734375 -67.84375 C 22.378906 -71.90625 30.015625 -73.9375 39.640625 -73.9375 Z M 39.640625 -73.9375 "/></g></g></g><g fill="#ffffff" fill-opacity="1"><g transform="translate(308.595191, 194.064066)"><g><path d="M 15.1875 -8.546875 C 7.207031 -15.640625 3.21875 -24.738281 3.21875 -35.84375 C 3.21875 -46.957031 7.375 -56.082031 15.6875 -63.21875 C 24 -70.363281 34.269531 -73.9375 46.5 -73.9375 C 58.539062 -73.9375 68.691406 -70.34375 76.953125 -63.15625 C 85.210938 -55.96875 89.34375 -46.863281 89.34375 -35.84375 C 89.34375 -24.832031 85.304688 -15.753906 77.234375 -8.609375 C 69.160156 -1.472656 58.914062 2.09375 46.5 2.09375 C 33.613281 2.09375 23.175781 -1.453125 15.1875 -8.546875 Z M 34.375 -48.03125 C 31.15625 -44.863281 29.546875 -40.800781 29.546875 -35.84375 C 29.546875 -30.894531 31.085938 -26.859375 34.171875 -23.734375 C 37.253906 -20.609375 41.316406 -19.046875 46.359375 -19.046875 C 51.210938 -19.046875 55.203125 -20.628906 58.328125 -23.796875 C 61.453125 -26.972656 63.015625 -30.992188 63.015625 -35.859375 C 63.015625 -40.804688 61.40625 -44.863281 58.1875 -48.03125 C 54.96875 -51.207031 51.023438 -52.796875 46.359375 -52.796875 C 41.597656 -52.796875 37.601562 -51.207031 34.375 -48.03125 Z M 34.375 -48.03125 "/></g></g></g><g fill="#ffffff" fill-opacity="1"><g transform="translate(389.256754, 194.064066)"><g><path d="M 31.796875 -71.84375 L 31.796875 -37.671875 C 31.796875 -30.578125 32.867188 -25.535156 35.015625 -22.546875 C 37.160156 -19.554688 40.800781 -18.0625 45.9375 -18.0625 C 51.070312 -18.0625 54.710938 -19.554688 56.859375 -22.546875 C 59.003906 -25.535156 60.078125 -30.578125 60.078125 -37.671875 L 60.078125 -71.84375 L 84.875 -71.84375 L 84.875 -31.65625 C 84.875 -19.695312 81.765625 -11.082031 75.546875 -5.8125 C 69.335938 -0.539062 59.460938 2.09375 45.921875 2.09375 C 32.390625 2.09375 22.519531 -0.539062 16.3125 -5.8125 C 10.101562 -11.082031 7 -19.695312 7 -31.65625 L 7 -71.84375 Z M 31.796875 -71.84375 "/></g></g></g><g fill="#ffffff" fill-opacity="1"><g transform="translate(469.218128, 194.064066)"><g><path d="M 8.40625 0 L 8.40625 -120.4375 L 33.1875 -120.4375 L 33.1875 0 Z M 8.40625 0 "/></g></g></g><g clip-path="url(#97589935c1)"><path fill="#ffffff" d="M 325.429688 132.78125 L 384.984375 132.78125 L 384.984375 179.261719 L 325.429688 179.261719 Z M 325.429688 132.78125 " fill-opacity="1" fill-rule="nonzero"/></g><g clip-path="url(#2cd8510ff8)"><path fill="#000000" d="M 363.933594 160.996094 C 362.414062 160.996094 361.179688 159.753906 361.179688 158.222656 C 361.179688 156.691406 362.414062 155.449219 363.933594 155.449219 C 365.457031 155.449219 366.691406 156.691406 366.691406 158.222656 C 366.691406 159.753906 365.457031 160.996094 363.933594 160.996094 Z M 354.75 160.996094 C 353.226562 160.996094 351.992188 159.753906 351.992188 158.222656 C 351.992188 156.691406 353.226562 155.449219 354.75 155.449219 C 356.269531 155.449219 357.503906 156.691406 357.503906 158.222656 C 357.503906 159.753906 356.269531 160.996094 354.75 160.996094 Z M 345.5625 160.996094 C 344.039062 160.996094 342.804688 159.753906 342.804688 158.222656 C 342.804688 156.691406 344.039062 155.449219 345.5625 155.449219 C 347.082031 155.449219 348.316406 156.691406 348.316406 158.222656 C 348.316406 159.753906 347.082031 160.996094 345.5625 160.996094 Z M 355.46875 140.652344 C 343.113281 140.40625 332.941406 148.070312 332.753906 157.765625 C 332.6875 161.136719 333.835938 164.308594 335.882812 167.023438 C 339.402344 171.574219 335.5625 179.394531 335.5625 179.394531 L 346.902344 174.480469 C 349.34375 175.257812 352 175.710938 354.78125 175.765625 C 367.140625 176.007812 377.308594 168.347656 377.5 158.652344 C 377.691406 148.957031 367.828125 140.898438 355.46875 140.652344 " fill-opacity="1" fill-rule="evenodd"/></g><path fill="#ffffff" d="M 246.222656 242.8125 C 237.5 241.773438 227.429688 245.195312 219.425781 240.375 C 211.644531 235.6875 212.429688 224.609375 212.789062 216.792969 C 213.597656 199.140625 217.84375 177.996094 205.671875 162.964844 C 202.789062 159.402344 199.128906 156.507812 195.035156 154.695312 C 197.671875 153.296875 200.105469 151.472656 202.222656 149.371094 C 208.441406 143.203125 211.839844 134.878906 213.179688 126.316406 C 214.691406 116.664062 213.734375 106.933594 213.019531 97.253906 C 212.652344 92.269531 212.355469 87.265625 212.574219 82.269531 C 212.738281 78.65625 213.160156 74.332031 215.683594 71.511719 C 218.613281 68.234375 223.601562 67.410156 227.773438 67.3125 C 233.382812 67.183594 238.925781 68.0625 244.53125 67.394531 C 246.734375 67.132812 248.613281 61.671875 245.539062 62.039062 C 236.75 63.085938 227.707031 60.164062 219.304688 64.019531 C 211.226562 67.726562 208.640625 76.433594 208.273438 84.65625 C 207.828125 94.6875 209.421875 104.65625 209.675781 114.667969 C 209.90625 123.5 209.125 132.921875 204.523438 140.683594 C 200.085938 148.167969 191.527344 153.242188 182.730469 152.015625 C 180.832031 151.746094 178.832031 155.464844 179.761719 156.914062 C 179.8125 157.75 180.273438 158.34375 181.359375 158.191406 C 189.304688 157.085938 197.078125 161.417969 201.972656 167.460938 C 207.636719 174.457031 209.515625 183.671875 209.820312 192.46875 C 210.164062 202.300781 208.636719 212.066406 208.394531 221.875 C 208.195312 229.824219 208.328125 239.722656 215.453125 244.878906 C 223.773438 250.90625 234.789062 247.140625 244.164062 248.257812 C 246.460938 248.539062 248.863281 243.128906 246.222656 242.8125 Z M 246.222656 242.8125 " fill-opacity="1" fill-rule="nonzero"/><g fill="#ffffff" fill-opacity="1"><g transform="translate(417.233155, 333.008062)"><g><path d="M 13.046875 -8.71875 C 6.453125 -15.90625 3.15625 -24.71875 3.15625 -35.15625 C 3.15625 -45.601562 6.453125 -54.441406 13.046875 -61.671875 C 19.640625 -68.910156 28.019531 -72.53125 38.1875 -72.53125 C 47.53125 -72.53125 55.222656 -69.597656 61.265625 -63.734375 L 61.265625 -118.125 L 85.578125 -118.125 L 85.578125 0 L 61.53125 0 L 61.53125 -7.96875 L 61.265625 -7.96875 C 55.222656 -1.28125 47.53125 2.0625 38.1875 2.0625 C 28.019531 2.0625 19.640625 -1.53125 13.046875 -8.71875 Z M 33.71875 -47.109375 C 30.5625 -43.992188 28.984375 -40.007812 28.984375 -35.15625 C 28.984375 -30.3125 30.492188 -26.351562 33.515625 -23.28125 C 36.535156 -20.21875 40.519531 -18.6875 45.46875 -18.6875 C 50.226562 -18.6875 54.140625 -20.238281 57.203125 -23.34375 C 60.273438 -26.457031 61.8125 -30.394531 61.8125 -35.15625 C 61.8125 -40.007812 60.226562 -43.992188 57.0625 -47.109375 C 53.90625 -50.222656 50.039062 -51.78125 45.46875 -51.78125 C 40.789062 -51.78125 36.875 -50.222656 33.71875 -47.109375 Z M 33.71875 -47.109375 "/></g></g></g><g fill="#ffffff" fill-opacity="1"><g transform="translate(499.374097, 333.008062)"><g><path d="M 79.53125 -31.875 L 28.4375 -31.875 C 28.4375 -26.925781 30.035156 -23.257812 33.234375 -20.875 C 36.441406 -18.5 39.925781 -17.3125 43.6875 -17.3125 C 47.625 -17.3125 50.734375 -17.835938 53.015625 -18.890625 C 55.304688 -19.941406 57.914062 -22.023438 60.84375 -25.140625 L 78.4375 -16.34375 C 71.101562 -4.070312 58.921875 2.0625 41.890625 2.0625 C 31.265625 2.0625 22.148438 -1.578125 14.546875 -8.859375 C 6.953125 -16.140625 3.15625 -24.90625 3.15625 -35.15625 C 3.15625 -45.414062 6.953125 -54.207031 14.546875 -61.53125 C 22.148438 -68.863281 31.265625 -72.53125 41.890625 -72.53125 C 53.066406 -72.53125 62.15625 -69.300781 69.15625 -62.84375 C 76.164062 -56.382812 79.671875 -47.15625 79.671875 -35.15625 C 79.671875 -33.507812 79.625 -32.414062 79.53125 -31.875 Z M 29.125 -45.328125 L 55.90625 -45.328125 C 55.351562 -48.992188 53.910156 -51.8125 51.578125 -53.78125 C 49.242188 -55.75 46.242188 -56.734375 42.578125 -56.734375 C 38.546875 -56.734375 35.335938 -55.675781 32.953125 -53.5625 C 30.578125 -51.457031 29.300781 -48.710938 29.125 -45.328125 Z M 29.125 -45.328125 "/></g></g></g><g fill="#ffffff" fill-opacity="1"><g transform="translate(570.526232, 333.008062)"><g><path d="M 26.09375 -70.46875 L 43.265625 -32.140625 L 60.4375 -70.46875 L 89.28125 -70.46875 L 51.515625 0 L 35.03125 0 L -2.75 -70.46875 Z M 26.09375 -70.46875 "/></g></g></g><g clip-path="url(#effa586dfc)"><path fill="#ffffff" d="M 652.3125 383.113281 C 661.050781 382.070312 671.136719 385.5 679.152344 380.671875 C 686.949219 375.976562 686.15625 364.878906 685.796875 357.050781 C 684.988281 339.367188 680.738281 318.191406 692.925781 303.136719 C 695.816406 299.566406 699.480469 296.667969 703.582031 294.855469 C 700.941406 293.453125 698.503906 291.628906 696.382812 289.523438 C 690.15625 283.34375 686.75 275.007812 685.40625 266.429688 C 683.894531 256.761719 684.855469 247.015625 685.570312 237.324219 C 685.9375 232.332031 686.234375 227.316406 686.015625 222.3125 C 685.851562 218.695312 685.425781 214.363281 682.898438 211.539062 C 679.964844 208.257812 674.96875 207.429688 670.792969 207.332031 C 665.171875 207.203125 659.625 208.082031 654.007812 207.414062 C 651.796875 207.148438 649.917969 201.683594 652.996094 202.050781 C 661.800781 203.097656 670.855469 200.171875 679.273438 204.035156 C 687.367188 207.746094 689.953125 216.46875 690.320312 224.703125 C 690.765625 234.75 689.171875 244.738281 688.917969 254.761719 C 688.6875 263.609375 689.46875 273.042969 694.078125 280.820312 C 698.523438 288.316406 707.09375 293.398438 715.90625 292.167969 C 717.808594 291.902344 719.808594 295.625 718.882812 297.074219 C 718.832031 297.914062 718.367188 298.507812 717.277344 298.355469 C 709.324219 297.25 701.535156 301.585938 696.632812 307.640625 C 690.960938 314.648438 689.078125 323.878906 688.773438 332.6875 C 688.429688 342.535156 689.957031 352.316406 690.203125 362.140625 C 690.398438 370.101562 690.269531 380.015625 683.132812 385.183594 C 674.796875 391.21875 663.765625 387.445312 654.375 388.566406 C 652.074219 388.847656 649.667969 383.429688 652.3125 383.113281 Z M 652.3125 383.113281 " fill-opacity="1" fill-rule="nonzero"/></g></svg>