<svg xmlns="http://www.w3.org/2000/svg" xmlns:xlink="http://www.w3.org/1999/xlink" width="200" zoomAndPan="magnify" viewBox="0 0 150 30.000001" height="40" preserveAspectRatio="xMidYMid meet" version="1.0"><defs><g/><clipPath id="a38a7280f3"><path d="M 36.433594 13.113281 L 43.027344 13.113281 L 43.027344 18.253906 L 36.433594 18.253906 Z M 36.433594 13.113281 " clip-rule="nonzero"/></clipPath><clipPath id="1c6e9e0611"><path d="M 37.234375 13.535156 L 42.316406 13.535156 L 42.316406 17.890625 L 37.234375 17.890625 Z M 37.234375 13.535156 " clip-rule="nonzero"/></clipPath><clipPath id="c48c84d69b"><path d="M 11.425781 1.464844 L 19 1.464844 L 19 22.511719 L 11.425781 22.511719 Z M 11.425781 1.464844 " clip-rule="nonzero"/></clipPath><clipPath id="87592e7f07"><path d="M 126.230469 7.6875 L 133.984375 7.6875 L 133.984375 28.738281 L 126.230469 28.738281 Z M 126.230469 7.6875 " clip-rule="nonzero"/></clipPath></defs><g fill="#ffffff" fill-opacity="1"><g transform="translate(19.931175, 20.400224)"><g><path d="M 5.203125 -9.703125 C 5.742188 -9.703125 6.273438 -9.640625 6.796875 -9.515625 C 7.328125 -9.398438 7.722656 -9.28125 7.984375 -9.15625 L 8.375 -8.96875 L 7.296875 -6.84375 C 6.566406 -7.238281 5.867188 -7.4375 5.203125 -7.4375 C 4.835938 -7.4375 4.578125 -7.394531 4.421875 -7.3125 C 4.265625 -7.226562 4.1875 -7.078125 4.1875 -6.859375 C 4.1875 -6.804688 4.191406 -6.753906 4.203125 -6.703125 C 4.222656 -6.660156 4.25 -6.617188 4.28125 -6.578125 C 4.320312 -6.535156 4.359375 -6.5 4.390625 -6.46875 C 4.421875 -6.4375 4.472656 -6.398438 4.546875 -6.359375 C 4.617188 -6.328125 4.675781 -6.300781 4.71875 -6.28125 C 4.757812 -6.257812 4.828125 -6.226562 4.921875 -6.1875 C 5.023438 -6.15625 5.097656 -6.128906 5.140625 -6.109375 C 5.191406 -6.097656 5.273438 -6.070312 5.390625 -6.03125 C 5.515625 -6 5.609375 -5.972656 5.671875 -5.953125 C 6.046875 -5.847656 6.375 -5.726562 6.65625 -5.59375 C 6.9375 -5.457031 7.234375 -5.269531 7.546875 -5.03125 C 7.859375 -4.800781 8.097656 -4.507812 8.265625 -4.15625 C 8.441406 -3.800781 8.53125 -3.394531 8.53125 -2.9375 C 8.53125 -0.789062 7.039062 0.28125 4.0625 0.28125 C 3.382812 0.28125 2.742188 0.175781 2.140625 -0.03125 C 1.535156 -0.238281 1.097656 -0.445312 0.828125 -0.65625 L 0.421875 -1 L 1.75 -3.21875 C 1.84375 -3.132812 1.96875 -3.03125 2.125 -2.90625 C 2.289062 -2.789062 2.582031 -2.632812 3 -2.4375 C 3.414062 -2.238281 3.773438 -2.140625 4.078125 -2.140625 C 4.753906 -2.140625 5.09375 -2.363281 5.09375 -2.8125 C 5.09375 -3.019531 5.003906 -3.179688 4.828125 -3.296875 C 4.660156 -3.410156 4.367188 -3.539062 3.953125 -3.6875 C 3.546875 -3.84375 3.226562 -3.976562 3 -4.09375 C 2.40625 -4.40625 1.9375 -4.753906 1.59375 -5.140625 C 1.25 -5.523438 1.078125 -6.035156 1.078125 -6.671875 C 1.078125 -7.628906 1.445312 -8.375 2.1875 -8.90625 C 2.9375 -9.4375 3.941406 -9.703125 5.203125 -9.703125 Z M 5.203125 -9.703125 "/></g></g></g><g fill="#ffffff" fill-opacity="1"><g transform="translate(34.069743, 20.400224)"><g><path d="M 1.984375 -1.109375 C 0.941406 -2.046875 0.421875 -3.242188 0.421875 -4.703125 C 0.421875 -6.160156 0.96875 -7.359375 2.0625 -8.296875 C 3.15625 -9.234375 4.503906 -9.703125 6.109375 -9.703125 C 7.691406 -9.703125 9.023438 -9.226562 10.109375 -8.28125 C 11.191406 -7.34375 11.734375 -6.148438 11.734375 -4.703125 C 11.734375 -3.253906 11.203125 -2.0625 10.140625 -1.125 C 9.078125 -0.1875 7.734375 0.28125 6.109375 0.28125 C 4.410156 0.28125 3.035156 -0.179688 1.984375 -1.109375 Z M 4.515625 -6.3125 C 4.085938 -5.894531 3.875 -5.359375 3.875 -4.703125 C 3.875 -4.054688 4.078125 -3.523438 4.484375 -3.109375 C 4.890625 -2.703125 5.425781 -2.5 6.09375 -2.5 C 6.726562 -2.5 7.25 -2.707031 7.65625 -3.125 C 8.070312 -3.539062 8.28125 -4.066406 8.28125 -4.703125 C 8.28125 -5.359375 8.066406 -5.894531 7.640625 -6.3125 C 7.210938 -6.726562 6.695312 -6.9375 6.09375 -6.9375 C 5.46875 -6.9375 4.941406 -6.726562 4.515625 -6.3125 Z M 4.515625 -6.3125 "/></g></g></g><g fill="#ffffff" fill-opacity="1"><g transform="translate(51.315094, 20.400224)"><g><path d="M 4.171875 -9.4375 L 4.171875 -4.953125 C 4.171875 -4.015625 4.3125 -3.347656 4.59375 -2.953125 C 4.875 -2.566406 5.351562 -2.375 6.03125 -2.375 C 6.707031 -2.375 7.1875 -2.566406 7.46875 -2.953125 C 7.75 -3.347656 7.890625 -4.015625 7.890625 -4.953125 L 7.890625 -9.4375 L 11.140625 -9.4375 L 11.140625 -4.15625 C 11.140625 -2.582031 10.734375 -1.445312 9.921875 -0.75 C 9.109375 -0.0625 7.8125 0.28125 6.03125 0.28125 C 4.25 0.28125 2.953125 -0.0625 2.140625 -0.75 C 1.328125 -1.445312 0.921875 -2.582031 0.921875 -4.15625 L 0.921875 -9.4375 Z M 4.171875 -9.4375 "/></g></g></g><g fill="#ffffff" fill-opacity="1"><g transform="translate(68.468534, 20.400224)"><g><path d="M 1.109375 0 L 1.109375 -15.8125 L 4.359375 -15.8125 L 4.359375 0 Z M 1.109375 0 "/></g></g></g><g fill="#ffffff" fill-opacity="1"><g transform="translate(79.022348, 20.400224)"><g><path d="M 1.75 -1.15625 C 0.863281 -2.125 0.421875 -3.304688 0.421875 -4.703125 C 0.421875 -6.097656 0.863281 -7.28125 1.75 -8.25 C 2.632812 -9.21875 3.753906 -9.703125 5.109375 -9.703125 C 6.359375 -9.703125 7.390625 -9.3125 8.203125 -8.53125 L 8.203125 -15.8125 L 11.453125 -15.8125 L 11.453125 0 L 8.234375 0 L 8.234375 -1.0625 L 8.203125 -1.0625 C 7.390625 -0.164062 6.359375 0.28125 5.109375 0.28125 C 3.753906 0.28125 2.632812 -0.195312 1.75 -1.15625 Z M 4.515625 -6.3125 C 4.085938 -5.894531 3.875 -5.359375 3.875 -4.703125 C 3.875 -4.054688 4.078125 -3.523438 4.484375 -3.109375 C 4.890625 -2.703125 5.425781 -2.5 6.09375 -2.5 C 6.726562 -2.5 7.25 -2.707031 7.65625 -3.125 C 8.070312 -3.539062 8.28125 -4.066406 8.28125 -4.703125 C 8.28125 -5.359375 8.066406 -5.894531 7.640625 -6.3125 C 7.210938 -6.726562 6.695312 -6.9375 6.09375 -6.9375 C 5.46875 -6.9375 4.941406 -6.726562 4.515625 -6.3125 Z M 4.515625 -6.3125 "/></g></g></g><g fill="#ffffff" fill-opacity="1"><g transform="translate(96.672133, 20.400224)"><g><path d="M 10.640625 -4.265625 L 3.8125 -4.265625 C 3.8125 -3.609375 4.023438 -3.117188 4.453125 -2.796875 C 4.878906 -2.472656 5.34375 -2.3125 5.84375 -2.3125 C 6.375 -2.3125 6.789062 -2.378906 7.09375 -2.515625 C 7.40625 -2.660156 7.753906 -2.941406 8.140625 -3.359375 L 10.5 -2.1875 C 9.519531 -0.539062 7.890625 0.28125 5.609375 0.28125 C 4.179688 0.28125 2.957031 -0.203125 1.9375 -1.171875 C 0.925781 -2.148438 0.421875 -3.328125 0.421875 -4.703125 C 0.421875 -6.078125 0.925781 -7.253906 1.9375 -8.234375 C 2.957031 -9.210938 4.179688 -9.703125 5.609375 -9.703125 C 7.109375 -9.703125 8.328125 -9.269531 9.265625 -8.40625 C 10.203125 -7.539062 10.671875 -6.304688 10.671875 -4.703125 C 10.671875 -4.484375 10.660156 -4.335938 10.640625 -4.265625 Z M 3.90625 -6.0625 L 7.484375 -6.0625 C 7.410156 -6.550781 7.21875 -6.925781 6.90625 -7.1875 C 6.59375 -7.457031 6.191406 -7.59375 5.703125 -7.59375 C 5.160156 -7.59375 4.726562 -7.453125 4.40625 -7.171875 C 4.09375 -6.890625 3.925781 -6.519531 3.90625 -6.0625 Z M 3.90625 -6.0625 "/></g></g></g><g fill="#ffffff" fill-opacity="1"><g transform="translate(112.851246, 20.400224)"><g><path d="M 3.5 -9.4375 L 5.796875 -4.296875 L 8.09375 -9.4375 L 11.953125 -9.4375 L 6.890625 0 L 4.6875 0 L -0.375 -9.4375 Z M 3.5 -9.4375 "/></g></g></g><g clip-path="url(#a38a7280f3)"><path fill="#ffffff" d="M 36.433594 13.113281 L 43.015625 13.113281 L 43.015625 18.253906 L 36.433594 18.253906 Z M 36.433594 13.113281 " fill-opacity="1" fill-rule="nonzero"/></g><g clip-path="url(#1c6e9e0611)"><path fill="#000000" d="M 40.761719 15.832031 C 40.589844 15.832031 40.453125 15.695312 40.453125 15.523438 C 40.453125 15.351562 40.589844 15.214844 40.761719 15.214844 C 40.933594 15.214844 41.074219 15.351562 41.074219 15.523438 C 41.074219 15.695312 40.933594 15.832031 40.761719 15.832031 Z M 39.726562 15.832031 C 39.554688 15.832031 39.414062 15.695312 39.414062 15.523438 C 39.414062 15.351562 39.554688 15.214844 39.726562 15.214844 C 39.898438 15.214844 40.035156 15.351562 40.035156 15.523438 C 40.035156 15.695312 39.898438 15.832031 39.726562 15.832031 Z M 38.6875 15.832031 C 38.515625 15.832031 38.375 15.695312 38.375 15.523438 C 38.375 15.351562 38.515625 15.214844 38.6875 15.214844 C 38.859375 15.214844 39 15.351562 39 15.523438 C 39 15.695312 38.859375 15.832031 38.6875 15.832031 Z M 39.808594 13.5625 C 38.410156 13.535156 37.261719 14.390625 37.242188 15.472656 C 37.234375 15.847656 37.363281 16.203125 37.59375 16.507812 C 37.992188 17.015625 37.558594 17.886719 37.558594 17.886719 L 38.839844 17.339844 C 39.113281 17.425781 39.414062 17.476562 39.730469 17.484375 C 41.125 17.511719 42.273438 16.65625 42.292969 15.570312 C 42.316406 14.488281 41.203125 13.589844 39.808594 13.5625 " fill-opacity="1" fill-rule="evenodd"/></g><g clip-path="url(#c48c84d69b)"><path fill="#ffffff" d="M 18.875 21.648438 C 17.910156 21.535156 16.796875 21.914062 15.910156 21.378906 C 15.050781 20.863281 15.136719 19.636719 15.179688 18.773438 C 15.265625 16.824219 15.738281 14.484375 14.390625 12.824219 C 14.074219 12.429688 13.667969 12.109375 13.214844 11.910156 C 13.507812 11.757812 13.777344 11.554688 14.011719 11.320312 C 14.699219 10.640625 15.074219 9.71875 15.222656 8.773438 C 15.386719 7.707031 15.28125 6.632812 15.203125 5.5625 C 15.164062 5.011719 15.128906 4.457031 15.152344 3.90625 C 15.171875 3.507812 15.21875 3.027344 15.496094 2.714844 C 15.820312 2.355469 16.371094 2.261719 16.835938 2.253906 C 17.453125 2.238281 18.066406 2.335938 18.6875 2.261719 C 18.929688 2.230469 19.136719 1.628906 18.796875 1.667969 C 17.824219 1.785156 16.828125 1.460938 15.898438 1.886719 C 15.003906 2.296875 14.71875 3.261719 14.679688 4.167969 C 14.628906 5.277344 14.804688 6.378906 14.832031 7.488281 C 14.859375 8.460938 14.773438 9.503906 14.265625 10.363281 C 13.773438 11.1875 12.828125 11.75 11.855469 11.613281 C 11.644531 11.585938 11.425781 11.996094 11.527344 12.15625 C 11.53125 12.25 11.585938 12.3125 11.703125 12.296875 C 12.582031 12.175781 13.441406 12.652344 13.984375 13.320312 C 14.609375 14.09375 14.816406 15.113281 14.851562 16.085938 C 14.886719 17.171875 14.71875 18.25 14.691406 19.335938 C 14.671875 20.214844 14.683594 21.308594 15.472656 21.878906 C 16.390625 22.542969 17.609375 22.128906 18.644531 22.25 C 18.898438 22.28125 19.164062 21.683594 18.875 21.648438 Z M 18.875 21.648438 " fill-opacity="1" fill-rule="nonzero"/></g><g clip-path="url(#87592e7f07)"><path fill="#ffffff" d="M 126.523438 27.90625 C 127.492188 27.792969 128.605469 28.171875 129.492188 27.636719 C 130.351562 27.117188 130.265625 25.890625 130.226562 25.027344 C 130.136719 23.074219 129.667969 20.730469 131.015625 19.066406 C 131.332031 18.671875 131.738281 18.351562 132.191406 18.152344 C 131.898438 17.996094 131.628906 17.796875 131.394531 17.5625 C 130.707031 16.878906 130.332031 15.957031 130.183594 15.011719 C 130.015625 13.941406 130.121094 12.867188 130.199219 11.792969 C 130.242188 11.242188 130.273438 10.6875 130.25 10.132812 C 130.230469 9.734375 130.183594 9.257812 129.90625 8.945312 C 129.582031 8.582031 129.03125 8.488281 128.566406 8.480469 C 127.945312 8.464844 127.332031 8.5625 126.710938 8.488281 C 126.46875 8.457031 126.261719 7.855469 126.601562 7.894531 C 127.574219 8.011719 128.574219 7.6875 129.503906 8.113281 C 130.398438 8.523438 130.6875 9.488281 130.726562 10.398438 C 130.777344 11.507812 130.597656 12.613281 130.570312 13.722656 C 130.546875 14.699219 130.632812 15.742188 131.140625 16.601562 C 131.632812 17.429688 132.578125 17.992188 133.554688 17.855469 C 133.765625 17.828125 133.984375 18.238281 133.882812 18.398438 C 133.878906 18.492188 133.824219 18.554688 133.707031 18.539062 C 132.828125 18.417969 131.964844 18.898438 131.425781 19.566406 C 130.796875 20.339844 130.589844 21.359375 130.554688 22.335938 C 130.515625 23.421875 130.6875 24.503906 130.714844 25.589844 C 130.734375 26.46875 130.71875 27.566406 129.929688 28.136719 C 129.011719 28.804688 127.789062 28.386719 126.753906 28.511719 C 126.5 28.542969 126.234375 27.941406 126.523438 27.90625 Z M 126.523438 27.90625 " fill-opacity="1" fill-rule="nonzero"/></g></svg>