<svg xmlns="http://www.w3.org/2000/svg" xmlns:xlink="http://www.w3.org/1999/xlink" width="500" zoomAndPan="magnify" viewBox="0 0 375 374.999991" height="500" preserveAspectRatio="xMidYMid meet" version="1.0"><defs><g/><clipPath id="6f836e9dfe"><path d="M 141.445312 123.039062 L 182.292969 123.039062 L 182.292969 154.101562 L 141.445312 154.101562 Z M 141.445312 123.039062 " clip-rule="nonzero"/></clipPath><clipPath id="68d8fc5251"><path d="M 143.835938 123.039062 L 179.835938 123.039062 L 179.835938 153.789062 L 143.835938 153.789062 Z M 143.835938 123.039062 " clip-rule="nonzero"/></clipPath><clipPath id="9d5dcf1cb4"><path d="M 272.054688 185 L 313 185 L 313 295 L 272.054688 295 Z M 272.054688 185 " clip-rule="nonzero"/></clipPath></defs><g fill="#222222" fill-opacity="1"><g transform="translate(92.215908, 161.275127)"><g><path d="M 26.8125 -50.015625 C 29.59375 -50.015625 32.335938 -49.695312 35.046875 -49.0625 C 37.765625 -48.4375 39.785156 -47.804688 41.109375 -47.171875 L 43.109375 -46.234375 L 37.609375 -35.234375 C 33.816406 -37.253906 30.21875 -38.265625 26.8125 -38.265625 C 24.914062 -38.265625 23.570312 -38.0625 22.78125 -37.65625 C 21.988281 -37.25 21.59375 -36.476562 21.59375 -35.34375 C 21.59375 -35.082031 21.625 -34.828125 21.6875 -34.578125 C 21.75 -34.328125 21.875 -34.085938 22.0625 -33.859375 C 22.257812 -33.640625 22.4375 -33.453125 22.59375 -33.296875 C 22.75 -33.140625 23.015625 -32.96875 23.390625 -32.78125 C 23.773438 -32.59375 24.078125 -32.445312 24.296875 -32.34375 C 24.515625 -32.25 24.875 -32.109375 25.375 -31.921875 C 25.882812 -31.734375 26.265625 -31.59375 26.515625 -31.5 C 26.773438 -31.40625 27.203125 -31.257812 27.796875 -31.0625 C 28.398438 -30.875 28.859375 -30.75 29.171875 -30.6875 C 31.128906 -30.125 32.832031 -29.492188 34.28125 -28.796875 C 35.738281 -28.097656 37.269531 -27.148438 38.875 -25.953125 C 40.488281 -24.753906 41.738281 -23.238281 42.625 -21.40625 C 43.507812 -19.570312 43.953125 -17.488281 43.953125 -15.15625 C 43.953125 -4.101562 36.28125 1.421875 20.9375 1.421875 C 17.457031 1.421875 14.15625 0.882812 11.03125 -0.1875 C 7.90625 -1.257812 5.648438 -2.332031 4.265625 -3.40625 L 2.171875 -5.109375 L 9 -16.578125 C 9.5 -16.140625 10.160156 -15.617188 10.984375 -15.015625 C 11.804688 -14.410156 13.289062 -13.585938 15.4375 -12.546875 C 17.582031 -11.503906 19.445312 -10.984375 21.03125 -10.984375 C 24.5 -10.984375 26.234375 -12.15625 26.234375 -14.5 C 26.234375 -15.570312 25.789062 -16.40625 24.90625 -17 C 24.03125 -17.601562 22.53125 -18.28125 20.40625 -19.03125 C 18.289062 -19.789062 16.632812 -20.488281 15.4375 -21.125 C 12.40625 -22.707031 10.003906 -24.492188 8.234375 -26.484375 C 6.472656 -28.472656 5.59375 -31.109375 5.59375 -34.390625 C 5.59375 -39.316406 7.5 -43.148438 11.3125 -45.890625 C 15.132812 -48.640625 20.300781 -50.015625 26.8125 -50.015625 Z M 26.8125 -50.015625 "/></g></g></g><g fill="#222222" fill-opacity="1"><g transform="translate(130.772001, 161.275127)"><g><path d="M 10.265625 -5.78125 C 4.867188 -10.582031 2.171875 -16.738281 2.171875 -24.25 C 2.171875 -31.769531 4.984375 -37.941406 10.609375 -42.765625 C 16.234375 -47.597656 23.179688 -50.015625 31.453125 -50.015625 C 39.597656 -50.015625 46.460938 -47.582031 52.046875 -42.71875 C 57.640625 -37.863281 60.4375 -31.707031 60.4375 -24.25 C 60.4375 -16.800781 57.703125 -10.660156 52.234375 -5.828125 C 46.773438 -0.992188 39.847656 1.421875 31.453125 1.421875 C 22.734375 1.421875 15.671875 -0.976562 10.265625 -5.78125 Z M 23.25 -32.484375 C 21.070312 -30.335938 19.984375 -27.59375 19.984375 -24.25 C 19.984375 -20.90625 21.023438 -18.175781 23.109375 -16.0625 C 25.191406 -13.945312 27.941406 -12.890625 31.359375 -12.890625 C 34.640625 -12.890625 37.335938 -13.960938 39.453125 -16.109375 C 41.566406 -18.253906 42.625 -20.96875 42.625 -24.25 C 42.625 -27.59375 41.535156 -30.335938 39.359375 -32.484375 C 37.179688 -34.640625 34.515625 -35.71875 31.359375 -35.71875 C 28.140625 -35.71875 25.4375 -34.640625 23.25 -32.484375 Z M 23.25 -32.484375 "/></g></g></g><g fill="#222222" fill-opacity="1"><g transform="translate(185.338194, 161.275127)"><g><path d="M 21.5 -48.59375 L 21.5 -25.484375 C 21.5 -20.679688 22.222656 -17.269531 23.671875 -15.25 C 25.128906 -13.226562 27.59375 -12.21875 31.0625 -12.21875 C 34.539062 -12.21875 37.003906 -13.226562 38.453125 -15.25 C 39.910156 -17.269531 40.640625 -20.679688 40.640625 -25.484375 L 40.640625 -48.59375 L 57.40625 -48.59375 L 57.40625 -21.40625 C 57.40625 -13.320312 55.304688 -7.492188 51.109375 -3.921875 C 46.910156 -0.359375 40.234375 1.421875 31.078125 1.421875 C 21.921875 1.421875 15.238281 -0.359375 11.03125 -3.921875 C 6.832031 -7.492188 4.734375 -13.320312 4.734375 -21.40625 L 4.734375 -48.59375 Z M 21.5 -48.59375 "/></g></g></g><g fill="#222222" fill-opacity="1"><g transform="translate(239.430716, 161.275127)"><g><path d="M 5.6875 0 L 5.6875 -81.46875 L 22.453125 -81.46875 L 22.453125 0 Z M 5.6875 0 "/></g></g></g><g clip-path="url(#6f836e9dfe)"><path fill="#222222" d="M 141.445312 123.039062 L 182.339844 123.039062 L 182.339844 154.101562 L 141.445312 154.101562 Z M 141.445312 123.039062 " fill-opacity="1" fill-rule="nonzero"/></g><g clip-path="url(#68d8fc5251)"><path fill="#ffffff" d="M 168.875 139.4375 C 167.652344 139.4375 166.664062 138.449219 166.664062 137.230469 C 166.664062 136.011719 167.652344 135.019531 168.875 135.019531 C 170.09375 135.019531 171.082031 136.011719 171.082031 137.230469 C 171.082031 138.449219 170.09375 139.4375 168.875 139.4375 Z M 161.511719 139.4375 C 160.292969 139.4375 159.304688 138.449219 159.304688 137.230469 C 159.304688 136.011719 160.292969 135.019531 161.511719 135.019531 C 162.730469 135.019531 163.71875 136.011719 163.71875 137.230469 C 163.71875 138.449219 162.730469 139.4375 161.511719 139.4375 Z M 154.152344 139.4375 C 152.929688 139.4375 151.941406 138.449219 151.941406 137.230469 C 151.941406 136.011719 152.929688 135.019531 154.152344 135.019531 C 155.371094 135.019531 156.359375 136.011719 156.359375 137.230469 C 156.359375 138.449219 155.371094 139.4375 154.152344 139.4375 Z M 162.089844 123.238281 C 152.191406 123.042969 144.039062 129.144531 143.886719 136.863281 C 143.835938 139.546875 144.757812 142.074219 146.394531 144.238281 C 149.214844 147.859375 146.136719 154.089844 146.136719 154.089844 L 155.226562 150.175781 C 157.183594 150.792969 159.308594 151.15625 161.539062 151.199219 C 171.441406 151.394531 179.589844 145.292969 179.742188 137.570312 C 179.894531 129.851562 171.992188 123.433594 162.089844 123.238281 " fill-opacity="1" fill-rule="evenodd"/></g><path fill="#050a30" d="M 87.15625 186.269531 C 82.042969 185.660156 76.144531 187.667969 71.453125 184.84375 C 66.890625 182.097656 67.355469 175.601562 67.566406 171.023438 C 68.039062 160.679688 70.527344 148.289062 63.394531 139.480469 C 61.703125 137.394531 59.558594 135.699219 57.160156 134.636719 C 58.707031 133.816406 60.132812 132.746094 61.371094 131.515625 C 65.015625 127.902344 67.007812 123.023438 67.792969 118.007812 C 68.679688 112.347656 68.117188 106.648438 67.699219 100.976562 C 67.484375 98.054688 67.308594 95.121094 67.4375 92.195312 C 67.535156 90.078125 67.78125 87.542969 69.261719 85.890625 C 70.976562 83.972656 73.898438 83.488281 76.34375 83.429688 C 79.632812 83.355469 82.878906 83.871094 86.164062 83.480469 C 87.457031 83.324219 88.558594 80.125 86.753906 80.339844 C 81.605469 80.953125 76.304688 79.242188 71.382812 81.503906 C 66.648438 83.671875 65.132812 88.777344 64.917969 93.59375 C 64.65625 99.472656 65.589844 105.316406 65.738281 111.179688 C 65.875 116.355469 65.417969 121.875 62.71875 126.425781 C 60.121094 130.808594 55.105469 133.785156 49.949219 133.066406 C 48.835938 132.910156 47.667969 135.085938 48.210938 135.933594 C 48.238281 136.425781 48.511719 136.773438 49.148438 136.683594 C 53.800781 136.039062 58.355469 138.574219 61.226562 142.117188 C 64.542969 146.214844 65.644531 151.617188 65.824219 156.769531 C 66.027344 162.53125 65.132812 168.253906 64.988281 174.003906 C 64.871094 178.660156 64.949219 184.460938 69.125 187.480469 C 74 191.015625 80.457031 188.804688 85.949219 189.460938 C 87.296875 189.625 88.703125 186.457031 87.15625 186.269531 Z M 87.15625 186.269531 " fill-opacity="1" fill-rule="nonzero"/><g fill="#222222" fill-opacity="1"><g transform="translate(117.400441, 266.400568)"><g><path d="M 8.453125 -5.65625 C 4.179688 -10.3125 2.046875 -16.019531 2.046875 -22.78125 C 2.046875 -29.550781 4.179688 -35.273438 8.453125 -39.953125 C 12.722656 -44.640625 18.148438 -46.984375 24.734375 -46.984375 C 30.785156 -46.984375 35.769531 -45.085938 39.6875 -41.296875 L 39.6875 -76.546875 L 55.453125 -76.546875 L 55.453125 0 L 39.875 0 L 39.875 -5.15625 L 39.6875 -5.15625 C 35.769531 -0.832031 30.785156 1.328125 24.734375 1.328125 C 18.148438 1.328125 12.722656 -1 8.453125 -5.65625 Z M 21.84375 -30.515625 C 19.800781 -28.503906 18.78125 -25.925781 18.78125 -22.78125 C 18.78125 -19.632812 19.757812 -17.066406 21.71875 -15.078125 C 23.675781 -13.097656 26.253906 -12.109375 29.453125 -12.109375 C 32.546875 -12.109375 35.082031 -13.113281 37.0625 -15.125 C 39.050781 -17.144531 40.046875 -19.695312 40.046875 -22.78125 C 40.046875 -25.925781 39.019531 -28.503906 36.96875 -30.515625 C 34.925781 -32.535156 32.421875 -33.546875 29.453125 -33.546875 C 26.429688 -33.546875 23.894531 -32.535156 21.84375 -30.515625 Z M 21.84375 -30.515625 "/></g></g></g><g fill="#222222" fill-opacity="1"><g transform="translate(170.616974, 266.400568)"><g><path d="M 51.53125 -20.640625 L 18.421875 -20.640625 C 18.421875 -17.441406 19.457031 -15.070312 21.53125 -13.53125 C 23.613281 -11.988281 25.867188 -11.21875 28.296875 -11.21875 C 30.847656 -11.21875 32.863281 -11.554688 34.34375 -12.234375 C 35.832031 -12.921875 37.523438 -14.269531 39.421875 -16.28125 L 50.8125 -10.59375 C 46.070312 -2.644531 38.179688 1.328125 27.140625 1.328125 C 20.265625 1.328125 14.363281 -1.023438 9.4375 -5.734375 C 4.507812 -10.453125 2.046875 -16.132812 2.046875 -22.78125 C 2.046875 -29.425781 4.507812 -35.117188 9.4375 -39.859375 C 14.363281 -44.609375 20.265625 -46.984375 27.140625 -46.984375 C 34.378906 -46.984375 40.269531 -44.890625 44.8125 -40.703125 C 49.351562 -36.523438 51.625 -30.550781 51.625 -22.78125 C 51.625 -21.71875 51.59375 -21.003906 51.53125 -20.640625 Z M 18.875 -29.375 L 36.21875 -29.375 C 35.863281 -31.75 34.929688 -33.570312 33.421875 -34.84375 C 31.910156 -36.113281 29.96875 -36.75 27.59375 -36.75 C 24.976562 -36.75 22.898438 -36.066406 21.359375 -34.703125 C 19.816406 -33.335938 18.988281 -31.5625 18.875 -29.375 Z M 18.875 -29.375 "/></g></g></g><g fill="#222222" fill-opacity="1"><g transform="translate(216.71414, 266.400568)"><g><path d="M 16.90625 -45.65625 L 28.03125 -20.828125 L 39.15625 -45.65625 L 57.84375 -45.65625 L 33.375 0 L 22.6875 0 L -1.78125 -45.65625 Z M 16.90625 -45.65625 "/></g></g></g><g clip-path="url(#9d5dcf1cb4)"><path fill="#050a30" d="M 273.613281 290.996094 C 278.714844 290.390625 284.597656 292.390625 289.277344 289.574219 C 293.828125 286.832031 293.367188 280.355469 293.15625 275.789062 C 292.683594 265.46875 290.203125 253.109375 297.316406 244.324219 C 299.003906 242.242188 301.140625 240.550781 303.535156 239.488281 C 301.992188 238.671875 300.570312 237.605469 299.332031 236.378906 C 295.699219 232.769531 293.710938 227.90625 292.929688 222.902344 C 292.046875 217.257812 292.605469 211.570312 293.023438 205.914062 C 293.238281 203 293.410156 200.074219 293.28125 197.152344 C 293.1875 195.042969 292.9375 192.515625 291.464844 190.867188 C 289.753906 188.949219 286.835938 188.46875 284.398438 188.410156 C 281.117188 188.335938 277.878906 188.847656 274.601562 188.457031 C 273.3125 188.304688 272.214844 185.113281 274.015625 185.328125 C 279.152344 185.941406 284.4375 184.234375 289.347656 186.488281 C 294.070312 188.652344 295.582031 193.742188 295.796875 198.550781 C 296.054688 204.410156 295.125 210.242188 294.976562 216.09375 C 294.84375 221.253906 295.300781 226.761719 297.988281 231.296875 C 300.582031 235.671875 305.585938 238.640625 310.726562 237.921875 C 311.839844 237.765625 313.003906 239.9375 312.464844 240.785156 C 312.433594 241.277344 312.164062 241.621094 311.527344 241.535156 C 306.886719 240.886719 302.339844 243.417969 299.480469 246.953125 C 296.167969 251.042969 295.070312 256.429688 294.894531 261.570312 C 294.691406 267.316406 295.585938 273.023438 295.726562 278.757812 C 295.839844 283.40625 295.765625 289.191406 291.601562 292.207031 C 286.734375 295.730469 280.296875 293.527344 274.816406 294.179688 C 273.472656 294.34375 272.070312 291.183594 273.613281 290.996094 Z M 273.613281 290.996094 " fill-opacity="1" fill-rule="nonzero"/></g></svg>