<svg xmlns="http://www.w3.org/2000/svg" xmlns:xlink="http://www.w3.org/1999/xlink" width="200" zoomAndPan="magnify" viewBox="0 0 150 30.000001" height="40" preserveAspectRatio="xMidYMid meet" version="1.0"><defs><g/><clipPath id="09a69827d3"><path d="M 35.628906 12.691406 L 44.109375 12.691406 L 44.109375 20.007812 L 35.628906 20.007812 Z M 35.628906 12.691406 " clip-rule="nonzero"/></clipPath><clipPath id="9570bea33c"><path d="M 36.433594 14.085938 L 42.964844 14.085938 L 42.964844 19.890625 L 36.433594 19.890625 Z M 36.433594 14.085938 " clip-rule="nonzero"/></clipPath><clipPath id="d185177151"><path d="M 2.417969 0 L 13 0 L 13 29 L 2.417969 29 Z M 2.417969 0 " clip-rule="nonzero"/></clipPath><clipPath id="49448c4f13"><path d="M 137 0 L 147.578125 0 L 147.578125 29 L 137 29 Z M 137 0 " clip-rule="nonzero"/></clipPath></defs><g fill="#ffffff" fill-opacity="1"><g transform="translate(16.473913, 22.882096)"><g><path d="M 6.84375 -12.765625 C 7.550781 -12.765625 8.25 -12.679688 8.9375 -12.515625 C 9.632812 -12.359375 10.15625 -12.203125 10.5 -12.046875 L 11 -11.796875 L 9.609375 -9 C 8.640625 -9.507812 7.71875 -9.765625 6.84375 -9.765625 C 6.363281 -9.765625 6.019531 -9.710938 5.8125 -9.609375 C 5.613281 -9.503906 5.515625 -9.304688 5.515625 -9.015625 C 5.515625 -8.953125 5.519531 -8.890625 5.53125 -8.828125 C 5.550781 -8.765625 5.582031 -8.703125 5.625 -8.640625 C 5.675781 -8.585938 5.722656 -8.539062 5.765625 -8.5 C 5.804688 -8.457031 5.875 -8.410156 5.96875 -8.359375 C 6.070312 -8.316406 6.148438 -8.28125 6.203125 -8.25 C 6.253906 -8.226562 6.34375 -8.191406 6.46875 -8.140625 C 6.601562 -8.097656 6.703125 -8.0625 6.765625 -8.03125 C 6.835938 -8.007812 6.945312 -7.972656 7.09375 -7.921875 C 7.25 -7.878906 7.367188 -7.851562 7.453125 -7.84375 C 7.953125 -7.695312 8.382812 -7.535156 8.75 -7.359375 C 9.125 -7.179688 9.515625 -6.9375 9.921875 -6.625 C 10.335938 -6.320312 10.65625 -5.9375 10.875 -5.46875 C 11.101562 -5 11.21875 -4.46875 11.21875 -3.875 C 11.21875 -1.050781 9.257812 0.359375 5.34375 0.359375 C 4.457031 0.359375 3.613281 0.222656 2.8125 -0.046875 C 2.019531 -0.316406 1.445312 -0.59375 1.09375 -0.875 L 0.5625 -1.3125 L 2.296875 -4.234375 C 2.421875 -4.117188 2.585938 -3.984375 2.796875 -3.828125 C 3.015625 -3.679688 3.394531 -3.472656 3.9375 -3.203125 C 4.488281 -2.941406 4.96875 -2.8125 5.375 -2.8125 C 6.257812 -2.8125 6.703125 -3.109375 6.703125 -3.703125 C 6.703125 -3.972656 6.585938 -4.1875 6.359375 -4.34375 C 6.128906 -4.5 5.742188 -4.671875 5.203125 -4.859375 C 4.671875 -5.054688 4.25 -5.234375 3.9375 -5.390625 C 3.164062 -5.796875 2.550781 -6.25 2.09375 -6.75 C 1.644531 -7.257812 1.421875 -7.9375 1.421875 -8.78125 C 1.421875 -10.039062 1.910156 -11.019531 2.890625 -11.71875 C 3.867188 -12.414062 5.1875 -12.765625 6.84375 -12.765625 Z M 6.84375 -12.765625 "/></g></g></g><g fill="#ffffff" fill-opacity="1"><g transform="translate(31.665917, 22.882096)"><g><path d="M 2.625 -1.46875 C 1.25 -2.695312 0.5625 -4.269531 0.5625 -6.1875 C 0.5625 -8.113281 1.273438 -9.691406 2.703125 -10.921875 C 4.140625 -12.148438 5.914062 -12.765625 8.03125 -12.765625 C 10.113281 -12.765625 11.867188 -12.144531 13.296875 -10.90625 C 14.722656 -9.664062 15.4375 -8.09375 15.4375 -6.1875 C 15.4375 -4.289062 14.738281 -2.722656 13.34375 -1.484375 C 11.945312 -0.253906 10.175781 0.359375 8.03125 0.359375 C 5.800781 0.359375 4 -0.25 2.625 -1.46875 Z M 5.9375 -8.296875 C 5.382812 -7.742188 5.109375 -7.039062 5.109375 -6.1875 C 5.109375 -5.332031 5.375 -4.632812 5.90625 -4.09375 C 6.4375 -3.5625 7.132812 -3.296875 8 -3.296875 C 8.84375 -3.296875 9.535156 -3.566406 10.078125 -4.109375 C 10.617188 -4.660156 10.890625 -5.351562 10.890625 -6.1875 C 10.890625 -7.039062 10.609375 -7.742188 10.046875 -8.296875 C 9.492188 -8.847656 8.8125 -9.125 8 -9.125 C 7.175781 -9.125 6.488281 -8.847656 5.9375 -8.296875 Z M 5.9375 -8.296875 "/></g></g></g><g fill="#ffffff" fill-opacity="1"><g transform="translate(50.945987, 22.882096)"><g><path d="M 5.484375 -12.40625 L 5.484375 -6.5 C 5.484375 -5.28125 5.671875 -4.410156 6.046875 -3.890625 C 6.421875 -3.378906 7.050781 -3.125 7.9375 -3.125 C 8.820312 -3.125 9.445312 -3.378906 9.8125 -3.890625 C 10.1875 -4.410156 10.375 -5.28125 10.375 -6.5 L 10.375 -12.40625 L 14.65625 -12.40625 L 14.65625 -5.46875 C 14.65625 -3.40625 14.117188 -1.914062 13.046875 -1 C 11.972656 -0.09375 10.265625 0.359375 7.921875 0.359375 C 5.585938 0.359375 3.882812 -0.09375 2.8125 -1 C 1.738281 -1.914062 1.203125 -3.40625 1.203125 -5.46875 L 1.203125 -12.40625 Z M 5.484375 -12.40625 "/></g></g></g><g fill="#ffffff" fill-opacity="1"><g transform="translate(70.105108, 22.882096)"><g><path d="M 1.453125 0 L 1.453125 -20.796875 L 5.734375 -20.796875 L 5.734375 0 Z M 1.453125 0 "/></g></g></g><g fill="#ffffff" fill-opacity="1"><g transform="translate(80.580123, 22.882096)"><g><path d="M 2.296875 -1.53125 C 1.140625 -2.800781 0.5625 -4.351562 0.5625 -6.1875 C 0.5625 -8.03125 1.140625 -9.585938 2.296875 -10.859375 C 3.460938 -12.128906 4.9375 -12.765625 6.71875 -12.765625 C 8.363281 -12.765625 9.71875 -12.25 10.78125 -11.21875 L 10.78125 -20.796875 L 15.0625 -20.796875 L 15.0625 0 L 10.84375 0 L 10.84375 -1.40625 L 10.78125 -1.40625 C 9.71875 -0.226562 8.363281 0.359375 6.71875 0.359375 C 4.9375 0.359375 3.460938 -0.269531 2.296875 -1.53125 Z M 5.9375 -8.296875 C 5.382812 -7.742188 5.109375 -7.039062 5.109375 -6.1875 C 5.109375 -5.332031 5.375 -4.632812 5.90625 -4.09375 C 6.4375 -3.5625 7.132812 -3.296875 8 -3.296875 C 8.84375 -3.296875 9.535156 -3.566406 10.078125 -4.109375 C 10.617188 -4.660156 10.890625 -5.351562 10.890625 -6.1875 C 10.890625 -7.039062 10.609375 -7.742188 10.046875 -8.296875 C 9.492188 -8.847656 8.8125 -9.125 8 -9.125 C 7.175781 -9.125 6.488281 -8.847656 5.9375 -8.296875 Z M 5.9375 -8.296875 "/></g></g></g><g fill="#ffffff" fill-opacity="1"><g transform="translate(100.392365, 22.882096)"><g><path d="M 14 -5.609375 L 5 -5.609375 C 5 -4.742188 5.28125 -4.097656 5.84375 -3.671875 C 6.414062 -3.253906 7.03125 -3.046875 7.6875 -3.046875 C 8.382812 -3.046875 8.929688 -3.140625 9.328125 -3.328125 C 9.734375 -3.515625 10.195312 -3.878906 10.71875 -4.421875 L 13.8125 -2.875 C 12.519531 -0.71875 10.375 0.359375 7.375 0.359375 C 5.507812 0.359375 3.90625 -0.28125 2.5625 -1.5625 C 1.226562 -2.84375 0.5625 -4.382812 0.5625 -6.1875 C 0.5625 -8 1.226562 -9.546875 2.5625 -10.828125 C 3.90625 -12.117188 5.507812 -12.765625 7.375 -12.765625 C 9.34375 -12.765625 10.941406 -12.195312 12.171875 -11.0625 C 13.410156 -9.925781 14.03125 -8.300781 14.03125 -6.1875 C 14.03125 -5.894531 14.019531 -5.703125 14 -5.609375 Z M 5.125 -7.984375 L 9.84375 -7.984375 C 9.75 -8.628906 9.492188 -9.125 9.078125 -9.46875 C 8.671875 -9.8125 8.144531 -9.984375 7.5 -9.984375 C 6.789062 -9.984375 6.222656 -9.796875 5.796875 -9.421875 C 5.378906 -9.054688 5.15625 -8.578125 5.125 -7.984375 Z M 5.125 -7.984375 "/></g></g></g><g fill="#ffffff" fill-opacity="1"><g transform="translate(118.26943, 22.882096)"><g><path d="M 4.59375 -12.40625 L 7.625 -5.65625 L 10.640625 -12.40625 L 15.71875 -12.40625 L 9.078125 0 L 6.171875 0 L -0.484375 -12.40625 Z M 4.59375 -12.40625 "/></g></g></g><g clip-path="url(#09a69827d3)"><path fill="#ffffff" d="M 35.628906 12.691406 L 44.117188 12.691406 L 44.117188 20.007812 L 35.628906 20.007812 Z M 35.628906 12.691406 " fill-opacity="1" fill-rule="nonzero"/></g><g clip-path="url(#9570bea33c)"><path fill="#000000" d="M 40.96875 17.152344 C 40.746094 17.152344 40.566406 16.96875 40.566406 16.738281 C 40.566406 16.511719 40.746094 16.328125 40.96875 16.328125 C 41.1875 16.328125 41.367188 16.511719 41.367188 16.738281 C 41.367188 16.96875 41.1875 17.152344 40.96875 17.152344 Z M 39.632812 17.152344 C 39.414062 17.152344 39.234375 16.96875 39.234375 16.738281 C 39.234375 16.511719 39.414062 16.328125 39.632812 16.328125 C 39.855469 16.328125 40.035156 16.511719 40.035156 16.738281 C 40.035156 16.96875 39.855469 17.152344 39.632812 17.152344 Z M 38.300781 17.152344 C 38.078125 17.152344 37.902344 16.96875 37.902344 16.738281 C 37.902344 16.511719 38.078125 16.328125 38.300781 16.328125 C 38.523438 16.328125 38.699219 16.511719 38.699219 16.738281 C 38.699219 16.96875 38.523438 17.152344 38.300781 17.152344 Z M 39.738281 14.125 C 37.945312 14.085938 36.46875 15.226562 36.441406 16.671875 C 36.433594 17.171875 36.597656 17.644531 36.894531 18.050781 C 37.40625 18.726562 36.847656 19.890625 36.847656 19.890625 L 38.496094 19.160156 C 38.851562 19.273438 39.234375 19.34375 39.640625 19.351562 C 41.433594 19.386719 42.910156 18.246094 42.9375 16.804688 C 42.964844 15.359375 41.53125 14.160156 39.738281 14.125 " fill-opacity="1" fill-rule="evenodd"/></g><g clip-path="url(#d185177151)"><path fill="#ffffff" d="M 12.675781 27.796875 C 11.347656 27.636719 9.8125 28.160156 8.59375 27.425781 C 7.410156 26.710938 7.53125 25.027344 7.585938 23.835938 C 7.707031 21.148438 8.355469 17.933594 6.503906 15.644531 C 6.0625 15.101562 5.507812 14.660156 4.882812 14.386719 C 5.285156 14.171875 5.65625 13.894531 5.976562 13.574219 C 6.925781 12.636719 7.441406 11.371094 7.644531 10.066406 C 7.875 8.597656 7.730469 7.117188 7.621094 5.644531 C 7.566406 4.886719 7.519531 4.125 7.554688 3.363281 C 7.578125 2.8125 7.640625 2.15625 8.027344 1.726562 C 8.472656 1.226562 9.230469 1.101562 9.867188 1.085938 C 10.71875 1.066406 11.5625 1.203125 12.417969 1.101562 C 12.753906 1.058594 13.039062 0.230469 12.570312 0.285156 C 11.230469 0.445312 9.855469 0 8.578125 0.585938 C 7.347656 1.152344 6.953125 2.476562 6.898438 3.726562 C 6.832031 5.253906 7.074219 6.769531 7.113281 8.292969 C 7.148438 9.640625 7.027344 11.070312 6.328125 12.253906 C 5.652344 13.390625 4.351562 14.164062 3.011719 13.976562 C 2.722656 13.9375 2.417969 14.503906 2.558594 14.722656 C 2.566406 14.851562 2.636719 14.941406 2.800781 14.917969 C 4.011719 14.75 5.195312 15.410156 5.941406 16.328125 C 6.800781 17.394531 7.085938 18.796875 7.132812 20.136719 C 7.1875 21.628906 6.953125 23.117188 6.917969 24.609375 C 6.886719 25.820312 6.90625 27.324219 7.992188 28.109375 C 9.257812 29.027344 10.933594 28.453125 12.359375 28.625 C 12.710938 28.667969 13.074219 27.84375 12.675781 27.796875 Z M 12.675781 27.796875 " fill-opacity="1" fill-rule="nonzero"/></g><g clip-path="url(#49448c4f13)"><path fill="#ffffff" d="M 137.324219 27.796875 C 138.652344 27.636719 140.183594 28.160156 141.402344 27.425781 C 142.585938 26.710938 142.464844 25.027344 142.410156 23.835938 C 142.289062 21.148438 141.640625 17.933594 143.496094 15.644531 C 143.933594 15.101562 144.492188 14.660156 145.113281 14.386719 C 144.710938 14.171875 144.34375 13.894531 144.019531 13.574219 C 143.074219 12.636719 142.554688 11.371094 142.351562 10.066406 C 142.121094 8.597656 142.269531 7.117188 142.375 5.644531 C 142.433594 4.886719 142.476562 4.125 142.445312 3.363281 C 142.417969 2.8125 142.355469 2.15625 141.972656 1.726562 C 141.527344 1.226562 140.765625 1.101562 140.132812 1.085938 C 139.277344 1.066406 138.433594 1.203125 137.582031 1.101562 C 137.246094 1.058594 136.960938 0.230469 137.425781 0.285156 C 138.765625 0.445312 140.140625 0 141.421875 0.585938 C 142.648438 1.152344 143.042969 2.476562 143.097656 3.726562 C 143.167969 5.253906 142.925781 6.769531 142.886719 8.292969 C 142.851562 9.640625 142.96875 11.070312 143.667969 12.253906 C 144.34375 13.390625 145.648438 14.164062 146.984375 13.976562 C 147.273438 13.9375 147.578125 14.503906 147.4375 14.722656 C 147.429688 14.851562 147.359375 14.941406 147.195312 14.917969 C 145.984375 14.75 144.804688 15.410156 144.058594 16.328125 C 143.195312 17.394531 142.910156 18.796875 142.863281 20.136719 C 142.8125 21.628906 143.042969 23.117188 143.082031 24.609375 C 143.109375 25.820312 143.089844 27.324219 142.007812 28.109375 C 140.738281 29.027344 139.0625 28.453125 137.636719 28.625 C 137.289062 28.667969 136.921875 27.84375 137.324219 27.796875 Z M 137.324219 27.796875 " fill-opacity="1" fill-rule="nonzero"/></g></svg>