<svg xmlns="http://www.w3.org/2000/svg" xmlns:xlink="http://www.w3.org/1999/xlink" width="679" zoomAndPan="magnify" viewBox="0 0 509.25 416.250001" height="555" preserveAspectRatio="xMidYMid meet" version="1.0"><defs><clipPath id="a8731fc44e"><path d="M 0.0820312 412 L 508.417969 412 L 508.417969 415 L 0.0820312 415 Z M 0.0820312 412 " clip-rule="nonzero"/></clipPath><clipPath id="9f8f23e998"><path d="M 244 390 L 295 390 L 295 415.5 L 244 415.5 Z M 244 390 " clip-rule="nonzero"/></clipPath></defs><path fill="#d7d7d8" d="M 409.84375 207.414062 L 73.914062 207.414062 C 68.839844 207.414062 64.71875 203.292969 64.71875 198.21875 L 64.71875 9.195312 C 64.71875 4.121094 68.839844 0 73.914062 0 L 409.851562 0 C 414.925781 0 419.046875 4.121094 419.046875 9.195312 L 419.046875 198.21875 C 419.046875 203.292969 414.925781 207.414062 409.851562 207.414062 Z M 73.914062 5.984375 C 72.140625 5.984375 70.703125 7.421875 70.703125 9.195312 L 70.703125 198.21875 C 70.703125 199.992188 72.140625 201.429688 73.914062 201.429688 L 409.851562 201.429688 C 411.625 201.429688 413.0625 199.992188 413.0625 198.21875 L 413.0625 9.195312 C 413.0625 7.421875 411.625 5.984375 409.851562 5.984375 Z M 73.914062 5.984375 " fill-opacity="1" fill-rule="nonzero"/><g clip-path="url(#a8731fc44e)"><path fill="#2f2e43" d="M 508.121094 413.503906 C 508.121094 414.125 507.617188 414.625 506.996094 414.625 L 1.503906 414.625 C 0.882812 414.625 0.382812 414.125 0.382812 413.503906 C 0.382812 412.882812 0.882812 412.382812 1.503906 412.382812 L 506.996094 412.382812 C 507.617188 412.382812 508.121094 412.882812 508.121094 413.503906 Z M 508.121094 413.503906 " fill-opacity="1" fill-rule="nonzero"/></g><path fill="#a0616a" d="M 241.5625 206.554688 C 243.851562 211.679688 242.921875 217.089844 239.496094 218.652344 C 236.070312 220.207031 231.429688 217.320312 229.140625 212.195312 C 228.199219 210.160156 227.78125 207.914062 227.921875 205.648438 L 218.507812 183.816406 L 229.375 179.289062 L 237.5 201.292969 C 239.28125 202.683594 240.671875 204.488281 241.554688 206.554688 Z M 241.5625 206.554688 " fill-opacity="1" fill-rule="nonzero"/><path fill="#d7d7d8" d="M 167.476562 81.777344 C 167.476562 81.777344 183.480469 75.679688 186.523438 80.09375 C 189.570312 84.507812 238.417969 195.367188 238.417969 195.367188 L 213.75 201.292969 L 167.476562 81.785156 Z M 167.476562 81.777344 " fill-opacity="1" fill-rule="nonzero"/><path fill="#a0616a" d="M 172.300781 91.054688 L 191.46875 97.355469 L 191.46875 69.769531 L 174.082031 69.769531 Z M 172.300781 91.054688 " fill-opacity="1" fill-rule="nonzero"/><path fill="#a0616a" d="M 208.191406 58.308594 C 208.191406 58.933594 208.160156 59.554688 208.101562 60.179688 C 208.039062 60.800781 207.945312 61.417969 207.824219 62.03125 C 207.703125 62.644531 207.550781 63.25 207.371094 63.847656 C 207.1875 64.449219 206.976562 65.035156 206.738281 65.613281 C 206.5 66.191406 206.230469 66.757812 205.9375 67.308594 C 205.640625 67.859375 205.320312 68.394531 204.972656 68.914062 C 204.625 69.433594 204.253906 69.9375 203.859375 70.417969 C 203.460938 70.902344 203.042969 71.367188 202.597656 71.808594 C 202.15625 72.25 201.695312 72.667969 201.210938 73.066406 C 200.726562 73.464844 200.226562 73.835938 199.707031 74.183594 C 199.1875 74.53125 198.648438 74.851562 198.097656 75.144531 C 197.546875 75.441406 196.984375 75.707031 196.40625 75.945312 C 195.828125 76.1875 195.238281 76.398438 194.640625 76.578125 C 194.042969 76.761719 193.4375 76.910156 192.824219 77.035156 C 192.210938 77.15625 191.59375 77.246094 190.96875 77.308594 C 190.347656 77.371094 189.722656 77.402344 189.097656 77.402344 C 188.472656 77.402344 187.847656 77.371094 187.226562 77.308594 C 186.605469 77.246094 185.988281 77.15625 185.371094 77.035156 C 184.757812 76.910156 184.152344 76.761719 183.554688 76.578125 C 182.957031 76.398438 182.367188 76.1875 181.792969 75.945312 C 181.214844 75.707031 180.648438 75.441406 180.097656 75.144531 C 179.546875 74.851562 179.011719 74.53125 178.488281 74.183594 C 177.96875 73.835938 177.46875 73.464844 176.984375 73.066406 C 176.5 72.667969 176.039062 72.25 175.597656 71.808594 C 175.15625 71.367188 174.734375 70.902344 174.339844 70.417969 C 173.941406 69.9375 173.570312 69.433594 173.222656 68.914062 C 172.875 68.394531 172.554688 67.859375 172.257812 67.308594 C 171.964844 66.757812 171.695312 66.191406 171.457031 65.613281 C 171.21875 65.035156 171.007812 64.449219 170.828125 63.847656 C 170.644531 63.25 170.492188 62.644531 170.371094 62.03125 C 170.25 61.417969 170.15625 60.800781 170.097656 60.179688 C 170.035156 59.554688 170.003906 58.933594 170.003906 58.308594 C 170.003906 57.679688 170.035156 57.058594 170.097656 56.433594 C 170.15625 55.8125 170.25 55.195312 170.371094 54.582031 C 170.492188 53.96875 170.644531 53.363281 170.828125 52.765625 C 171.007812 52.164062 171.21875 51.578125 171.457031 51 C 171.695312 50.421875 171.964844 49.855469 172.257812 49.304688 C 172.554688 48.753906 172.875 48.21875 173.222656 47.699219 C 173.570312 47.179688 173.941406 46.675781 174.339844 46.195312 C 174.734375 45.710938 175.15625 45.246094 175.597656 44.804688 C 176.039062 44.363281 176.5 43.945312 176.984375 43.546875 C 177.46875 43.148438 177.96875 42.777344 178.488281 42.429688 C 179.011719 42.082031 179.546875 41.761719 180.097656 41.46875 C 180.648438 41.171875 181.214844 40.90625 181.792969 40.667969 C 182.367188 40.425781 182.957031 40.214844 183.554688 40.035156 C 184.152344 39.851562 184.757812 39.703125 185.371094 39.578125 C 185.988281 39.457031 186.605469 39.367188 187.226562 39.304688 C 187.847656 39.242188 188.472656 39.210938 189.097656 39.210938 C 189.722656 39.210938 190.347656 39.242188 190.96875 39.304688 C 191.59375 39.367188 192.210938 39.457031 192.824219 39.578125 C 193.4375 39.703125 194.042969 39.851562 194.640625 40.035156 C 195.238281 40.214844 195.828125 40.425781 196.40625 40.667969 C 196.984375 40.90625 197.546875 41.171875 198.097656 41.46875 C 198.648438 41.761719 199.1875 42.082031 199.707031 42.429688 C 200.226562 42.777344 200.726562 43.148438 201.210938 43.546875 C 201.695312 43.945312 202.15625 44.363281 202.597656 44.804688 C 203.042969 45.246094 203.460938 45.710938 203.859375 46.195312 C 204.253906 46.675781 204.625 47.179688 204.972656 47.699219 C 205.320312 48.21875 205.640625 48.753906 205.9375 49.304688 C 206.230469 49.855469 206.5 50.421875 206.738281 51 C 206.976562 51.578125 207.1875 52.164062 207.371094 52.765625 C 207.550781 53.363281 207.703125 53.96875 207.824219 54.582031 C 207.945312 55.195312 208.039062 55.8125 208.101562 56.433594 C 208.160156 57.058594 208.191406 57.679688 208.191406 58.308594 Z M 208.191406 58.308594 " fill-opacity="1" fill-rule="nonzero"/><path fill="#2f2e43" d="M 184.234375 59.804688 L 186.867188 62.996094 L 191.625 54.664062 C 191.625 54.664062 197.703125 54.976562 197.703125 50.464844 C 197.703125 45.953125 203.277344 45.828125 203.277344 45.828125 C 203.277344 45.828125 211.167969 32.046875 194.820312 35.675781 C 194.820312 35.675781 183.480469 27.90625 177.84375 34.542969 C 177.84375 34.542969 160.554688 43.253906 165.5 58.410156 L 173.722656 74.042969 L 175.585938 70.503906 C 175.585938 70.503906 174.457031 55.652344 184.234375 59.789062 Z M 184.234375 59.804688 " fill-opacity="1" fill-rule="nonzero"/><path fill="#a0616a" d="M 166.5625 377.359375 L 182.230469 377.359375 L 182.230469 399.585938 L 166.5625 399.585938 Z M 166.5625 377.359375 " fill-opacity="1" fill-rule="nonzero"/><path fill="#2f2e43" d="M 180.492188 412.320312 C 177.816406 412.5625 164.40625 413.625 163.734375 410.546875 C 163.121094 407.726562 164.027344 404.78125 164.152344 404.375 C 165.441406 391.550781 165.917969 391.410156 166.210938 391.328125 C 166.667969 391.191406 168 391.828125 170.160156 393.21875 L 170.296875 393.308594 L 170.324219 393.46875 C 170.363281 393.667969 171.320312 398.375 175.863281 397.648438 C 178.976562 397.15625 179.984375 396.46875 180.308594 396.128906 C 180.042969 396.011719 179.714844 395.800781 179.484375 395.441406 C 179.148438 394.917969 179.085938 394.246094 179.3125 393.4375 C 179.894531 391.304688 181.644531 388.15625 181.722656 388.027344 L 181.921875 387.667969 L 199.730469 399.683594 L 210.726562 402.828125 C 211.558594 403.066406 212.226562 403.65625 212.5625 404.449219 C 213.023438 405.558594 212.742188 406.84375 211.84375 407.652344 C 209.84375 409.449219 205.878906 412.523438 201.710938 412.90625 C 200.605469 413.011719 199.140625 413.046875 197.492188 413.046875 C 190.617188 413.046875 180.574219 412.335938 180.5 412.320312 Z M 180.492188 412.320312 " fill-opacity="1" fill-rule="nonzero"/><path fill="#2f2e43" d="M 202.234375 185.714844 L 161.136719 183.613281 C 161.136719 183.613281 154.839844 207.496094 162.800781 232.382812 L 163.757812 382.238281 L 186.980469 382.238281 L 208.871094 227.652344 L 202.238281 185.714844 Z M 202.234375 185.714844 " fill-opacity="1" fill-rule="nonzero"/><path fill="#d7d7d8" d="M 195.300781 85.757812 L 172.742188 73.785156 C 172.742188 73.785156 148.433594 109.3125 151.792969 128.554688 C 155.160156 147.796875 161.128906 183.621094 161.128906 183.621094 L 210.894531 185.722656 L 202.207031 115.175781 Z M 195.300781 85.757812 " fill-opacity="1" fill-rule="nonzero"/><path fill="#a0616a" d="M 177.703125 377.359375 L 193.371094 377.359375 L 193.371094 399.585938 L 177.703125 399.585938 Z M 177.703125 377.359375 " fill-opacity="1" fill-rule="nonzero"/><path fill="#2f2e43" d="M 191.632812 412.320312 C 188.957031 412.5625 175.546875 413.625 174.875 410.546875 C 174.261719 407.726562 175.167969 404.78125 175.292969 404.375 C 176.582031 391.550781 177.058594 391.410156 177.351562 391.328125 C 177.808594 391.191406 179.140625 391.828125 181.300781 393.21875 L 181.4375 393.308594 L 181.464844 393.46875 C 181.503906 393.667969 182.460938 398.375 187.003906 397.648438 C 190.117188 397.15625 191.125 396.46875 191.449219 396.128906 C 191.183594 396.011719 190.855469 395.800781 190.625 395.441406 C 190.289062 394.917969 190.226562 394.246094 190.453125 393.4375 C 191.035156 391.304688 192.785156 388.15625 192.863281 388.027344 L 193.0625 387.667969 L 210.871094 399.683594 L 221.867188 402.828125 C 222.699219 403.066406 223.367188 403.65625 223.703125 404.449219 C 224.164062 405.558594 223.882812 406.84375 222.984375 407.652344 C 220.984375 409.449219 217.019531 412.523438 212.851562 412.90625 C 211.746094 413.011719 210.28125 413.046875 208.632812 413.046875 C 201.757812 413.046875 191.714844 412.335938 191.640625 412.320312 Z M 191.632812 412.320312 " fill-opacity="1" fill-rule="nonzero"/><path fill="#2f2e43" d="M 210.894531 185.714844 L 161.128906 183.613281 C 161.128906 183.613281 154.832031 207.496094 162.792969 232.382812 L 172.414062 382.238281 L 195.636719 382.238281 L 217.53125 227.652344 Z M 210.894531 185.714844 " fill-opacity="1" fill-rule="nonzero"/><path fill="#2f2e43" d="M 264.769531 71.304688 L 261.621094 79.179688 C 261.621094 79.179688 258.71875 90.210938 262.121094 94.609375 C 265.519531 99 266.273438 132.675781 262.621094 135.160156 C 258.972656 137.652344 308.898438 112.101562 308.898438 112.101562 C 308.898438 112.101562 289.410156 66.902344 289.078125 66.738281 C 288.75 66.574219 275.976562 62.59375 275.976562 62.59375 L 264.785156 71.304688 Z M 264.769531 71.304688 " fill-opacity="1" fill-rule="nonzero"/><path fill="#f3a3a6" d="M 297.277344 110.246094 L 280.550781 115.746094 L 280.550781 91.667969 L 295.730469 91.667969 Z M 297.277344 110.246094 " fill-opacity="1" fill-rule="nonzero"/><path fill="#f3a3a6" d="M 246.148438 246.949219 C 245.242188 252.460938 241.5625 256.421875 237.933594 255.785156 C 234.304688 255.148438 232.089844 250.160156 233.003906 244.636719 C 233.332031 242.429688 234.207031 240.335938 235.554688 238.546875 L 239.699219 215.226562 L 250.980469 217.589844 L 245.691406 240.328125 C 246.386719 242.480469 246.542969 244.75 246.148438 246.949219 Z M 246.148438 246.949219 " fill-opacity="1" fill-rule="nonzero"/><path fill="#f3a3a6" d="M 275.328125 379.8125 L 290.996094 379.8125 L 290.996094 402.042969 L 275.328125 402.042969 Z M 275.328125 379.8125 " fill-opacity="1" fill-rule="nonzero"/><g clip-path="url(#9f8f23e998)"><path fill="#2f2e43" d="M 260.0625 415.5 C 258.417969 415.5 256.953125 415.464844 255.84375 415.359375 C 251.683594 414.976562 247.710938 411.902344 245.714844 410.105469 C 244.816406 409.296875 244.53125 408.011719 244.996094 406.90625 C 245.332031 406.113281 246 405.511719 246.828125 405.28125 L 257.828125 402.136719 L 275.632812 390.121094 L 275.835938 390.480469 C 275.910156 390.617188 277.660156 393.765625 278.246094 395.890625 C 278.46875 396.699219 278.410156 397.371094 278.074219 397.894531 C 277.839844 398.253906 277.511719 398.464844 277.25 398.585938 C 277.570312 398.921875 278.582031 399.609375 281.695312 400.101562 C 286.234375 400.820312 287.195312 396.117188 287.230469 395.921875 L 287.261719 395.765625 L 287.394531 395.675781 C 289.558594 394.28125 290.890625 393.648438 291.347656 393.78125 C 291.628906 393.863281 292.109375 394.011719 293.402344 406.828125 C 293.53125 407.234375 294.4375 410.179688 293.824219 413.003906 C 293.15625 416.070312 279.75 415.015625 277.0625 414.777344 C 276.988281 414.78125 266.949219 415.5 260.070312 415.5 Z M 260.0625 415.5 " fill-opacity="1" fill-rule="nonzero"/></g><path fill="#f3a3a6" d="M 322.3125 370.640625 L 335.605469 362.351562 L 347.371094 381.210938 L 334.078125 389.503906 Z M 322.3125 370.640625 " fill-opacity="1" fill-rule="nonzero"/><path fill="#2f2e43" d="M 317.953125 412.449219 C 316.109375 412.449219 314.421875 412.222656 313.214844 412.015625 C 312.035156 411.804688 311.105469 410.863281 310.910156 409.679688 C 310.777344 408.828125 311.023438 407.96875 311.605469 407.332031 L 319.277344 398.847656 L 328.03125 379.230469 L 328.390625 379.421875 C 328.523438 379.5 331.671875 381.242188 333.296875 382.738281 C 333.917969 383.304688 334.226562 383.914062 334.210938 384.535156 C 334.203125 384.96875 334.039062 385.3125 333.875 385.558594 C 334.324219 385.679688 335.542969 385.722656 338.445312 384.496094 C 342.679688 382.707031 341.003906 378.203125 340.929688 378.015625 L 340.867188 377.867188 L 340.9375 377.726562 C 342.035156 375.398438 342.820312 374.15625 343.285156 374.027344 C 343.578125 373.945312 344.054688 373.820312 351.933594 384.015625 C 352.257812 384.285156 354.582031 386.3125 355.554688 389.03125 C 356.609375 391.984375 344.675781 398.1875 342.277344 399.398438 C 342.199219 399.460938 329.714844 408.535156 324.582031 411.117188 C 322.546875 412.140625 320.136719 412.457031 317.945312 412.457031 Z M 317.953125 412.449219 " fill-opacity="1" fill-rule="nonzero"/><path fill="#2f2e43" d="M 302.53125 193.925781 L 258.664062 193.925781 L 254.683594 234.730469 L 272.101562 385.507812 L 294.496094 385.507812 L 285.539062 298.425781 L 321.863281 377.042969 L 341.765625 363.113281 L 313.402344 289.714844 C 313.402344 289.714844 323.535156 225.773438 315.574219 209.84375 C 307.613281 193.925781 302.53125 193.925781 302.53125 193.925781 Z M 302.53125 193.925781 " fill-opacity="1" fill-rule="nonzero"/><path fill="#d7d7d8" d="M 324.347656 196.414062 L 248.210938 196.414062 L 275.582031 106.347656 L 305.9375 106.347656 Z M 324.347656 196.414062 " fill-opacity="1" fill-rule="nonzero"/><path fill="#d7d7d8" d="M 280.371094 106.363281 C 280.371094 106.363281 261.464844 105.863281 259.472656 110.84375 C 257.484375 115.820312 234.09375 234.25 234.09375 234.25 L 249.523438 234.25 L 280.378906 106.363281 Z M 280.371094 106.363281 " fill-opacity="1" fill-rule="nonzero"/><path fill="#f3a3a6" d="M 299.292969 81.664062 C 299.292969 82.210938 299.265625 82.753906 299.210938 83.300781 C 299.15625 83.84375 299.078125 84.382812 298.972656 84.917969 C 298.863281 85.453125 298.734375 85.980469 298.574219 86.503906 C 298.414062 87.027344 298.230469 87.539062 298.023438 88.042969 C 297.8125 88.550781 297.582031 89.042969 297.324219 89.523438 C 297.066406 90.003906 296.785156 90.472656 296.484375 90.925781 C 296.179688 91.378906 295.855469 91.820312 295.507812 92.242188 C 295.160156 92.664062 294.796875 93.066406 294.410156 93.453125 C 294.023438 93.839844 293.621094 94.203125 293.199219 94.550781 C 292.773438 94.898438 292.335938 95.222656 291.882812 95.527344 C 291.429688 95.828125 290.960938 96.109375 290.480469 96.367188 C 290 96.625 289.503906 96.855469 289 97.066406 C 288.496094 97.273438 287.984375 97.457031 287.460938 97.617188 C 286.9375 97.777344 286.410156 97.90625 285.875 98.015625 C 285.339844 98.121094 284.800781 98.203125 284.257812 98.253906 C 283.710938 98.308594 283.167969 98.335938 282.621094 98.335938 C 282.078125 98.335938 281.53125 98.308594 280.988281 98.253906 C 280.445312 98.203125 279.90625 98.121094 279.371094 98.015625 C 278.835938 97.90625 278.304688 97.777344 277.78125 97.617188 C 277.261719 97.457031 276.746094 97.273438 276.242188 97.066406 C 275.738281 96.855469 275.246094 96.625 274.765625 96.367188 C 274.28125 96.109375 273.816406 95.828125 273.359375 95.527344 C 272.90625 95.222656 272.46875 94.898438 272.046875 94.550781 C 271.625 94.203125 271.222656 93.839844 270.835938 93.453125 C 270.449219 93.066406 270.082031 92.664062 269.734375 92.242188 C 269.390625 91.820312 269.066406 91.378906 268.761719 90.925781 C 268.457031 90.472656 268.179688 90.003906 267.921875 89.523438 C 267.664062 89.042969 267.429688 88.550781 267.222656 88.042969 C 267.011719 87.539062 266.828125 87.027344 266.671875 86.503906 C 266.511719 85.980469 266.378906 85.453125 266.273438 84.917969 C 266.167969 84.382812 266.085938 83.84375 266.03125 83.300781 C 265.980469 82.753906 265.953125 82.210938 265.953125 81.664062 C 265.953125 81.121094 265.980469 80.574219 266.03125 80.03125 C 266.085938 79.488281 266.167969 78.949219 266.273438 78.414062 C 266.378906 77.878906 266.511719 77.347656 266.671875 76.828125 C 266.828125 76.304688 267.011719 75.789062 267.222656 75.285156 C 267.429688 74.78125 267.664062 74.289062 267.921875 73.808594 C 268.179688 73.324219 268.457031 72.859375 268.761719 72.402344 C 269.066406 71.949219 269.390625 71.511719 269.734375 71.089844 C 270.082031 70.667969 270.449219 70.265625 270.835938 69.878906 C 271.222656 69.492188 271.625 69.125 272.046875 68.78125 C 272.46875 68.433594 272.90625 68.109375 273.359375 67.804688 C 273.816406 67.5 274.28125 67.222656 274.765625 66.964844 C 275.246094 66.707031 275.738281 66.472656 276.242188 66.265625 C 276.746094 66.054688 277.261719 65.871094 277.78125 65.714844 C 278.304688 65.554688 278.835938 65.421875 279.371094 65.316406 C 279.90625 65.210938 280.445312 65.128906 280.988281 65.074219 C 281.53125 65.023438 282.078125 64.996094 282.621094 64.996094 C 283.167969 64.996094 283.710938 65.023438 284.257812 65.074219 C 284.800781 65.128906 285.339844 65.210938 285.875 65.316406 C 286.410156 65.421875 286.9375 65.554688 287.460938 65.714844 C 287.984375 65.871094 288.496094 66.054688 289 66.265625 C 289.503906 66.472656 290 66.707031 290.480469 66.964844 C 290.960938 67.222656 291.429688 67.5 291.882812 67.804688 C 292.335938 68.109375 292.773438 68.433594 293.199219 68.78125 C 293.621094 69.125 294.023438 69.492188 294.410156 69.878906 C 294.796875 70.265625 295.160156 70.667969 295.507812 71.089844 C 295.855469 71.511719 296.179688 71.949219 296.484375 72.402344 C 296.785156 72.859375 297.066406 73.324219 297.324219 73.808594 C 297.582031 74.289062 297.8125 74.78125 298.023438 75.285156 C 298.230469 75.789062 298.414062 76.304688 298.574219 76.828125 C 298.734375 77.347656 298.863281 77.878906 298.972656 78.414062 C 299.078125 78.949219 299.15625 79.488281 299.210938 80.03125 C 299.265625 80.574219 299.292969 81.121094 299.292969 81.664062 Z M 299.292969 81.664062 " fill-opacity="1" fill-rule="nonzero"/><path fill="#2f2e43" d="M 285.855469 55.761719 C 285.855469 55.761719 305.921875 50.621094 312.0625 77.324219 C 312.0625 77.324219 312.226562 84.292969 315.714844 87.113281 C 319.203125 89.933594 318.035156 104.53125 318.035156 104.53125 C 318.035156 104.53125 324.671875 115.476562 319.027344 120.453125 C 319.027344 120.453125 316.539062 130.566406 320.1875 136.375 C 323.839844 142.179688 337.605469 174.113281 314.710938 176.058594 C 314.710938 176.058594 303.101562 169.046875 308.578125 148.148438 C 314.054688 127.253906 307.910156 115.707031 307.910156 115.707031 C 307.910156 115.707031 290.328125 109.332031 291.324219 95.730469 C 292.320312 82.128906 280.039062 68.691406 279.21875 68.863281 C 278.394531 69.035156 269.761719 64.054688 265.945312 79.316406 L 261.859375 78.621094 C 261.859375 78.621094 260.140625 52.941406 285.855469 55.761719 Z M 285.855469 55.761719 " fill-opacity="1" fill-rule="nonzero"/><path fill="#f3a3a6" d="M 337.34375 244.269531 C 338.460938 249.746094 336.417969 254.753906 332.796875 255.449219 C 329.175781 256.144531 325.335938 252.261719 324.230469 246.785156 C 323.757812 244.597656 323.832031 242.339844 324.445312 240.183594 L 320.039062 216.910156 L 331.425781 215.105469 L 334.5625 238.238281 C 335.976562 240.003906 336.925781 242.070312 337.34375 244.269531 Z M 337.34375 244.269531 " fill-opacity="1" fill-rule="nonzero"/><path fill="#d7d7d8" d="M 292.679688 106.46875 C 292.679688 106.46875 309.332031 104.359375 311.324219 109.332031 C 313.3125 114.308594 336.703125 232.742188 336.703125 232.742188 L 321.273438 232.742188 Z M 292.679688 106.46875 " fill-opacity="1" fill-rule="nonzero"/><path fill="#000000" d="M 355.628906 195.839844 C 355.628906 196.953125 355.601562 198.066406 355.550781 199.175781 C 355.496094 200.289062 355.414062 201.398438 355.304688 202.503906 C 355.195312 203.613281 355.058594 204.714844 354.894531 205.816406 C 354.730469 206.917969 354.542969 208.015625 354.324219 209.105469 C 354.105469 210.199219 353.863281 211.285156 353.59375 212.363281 C 353.324219 213.441406 353.027344 214.515625 352.703125 215.578125 C 352.378906 216.644531 352.03125 217.699219 351.65625 218.75 C 351.28125 219.796875 350.878906 220.835938 350.453125 221.863281 C 350.027344 222.890625 349.578125 223.910156 349.101562 224.914062 C 348.625 225.921875 348.125 226.914062 347.601562 227.894531 C 347.078125 228.878906 346.527344 229.84375 345.957031 230.800781 C 345.382812 231.753906 344.789062 232.695312 344.171875 233.621094 C 343.550781 234.546875 342.910156 235.453125 342.25 236.347656 C 341.585938 237.242188 340.902344 238.121094 340.195312 238.980469 C 339.488281 239.839844 338.761719 240.683594 338.015625 241.507812 C 337.265625 242.332031 336.5 243.136719 335.714844 243.925781 C 334.925781 244.710938 334.121094 245.480469 333.296875 246.226562 C 332.472656 246.972656 331.628906 247.699219 330.769531 248.40625 C 329.90625 249.113281 329.03125 249.796875 328.136719 250.460938 C 327.242188 251.125 326.332031 251.765625 325.40625 252.382812 C 324.484375 253 323.542969 253.59375 322.589844 254.167969 C 321.632812 254.738281 320.664062 255.289062 319.683594 255.8125 C 318.703125 256.335938 317.707031 256.835938 316.703125 257.3125 C 315.695312 257.789062 314.679688 258.242188 313.652344 258.667969 C 312.621094 259.09375 311.585938 259.492188 310.539062 259.867188 C 309.488281 260.242188 308.433594 260.589844 307.367188 260.914062 C 306.304688 261.238281 305.230469 261.535156 304.152344 261.804688 C 303.070312 262.074219 301.984375 262.320312 300.894531 262.535156 C 299.804688 262.753906 298.707031 262.941406 297.605469 263.105469 C 296.503906 263.269531 295.402344 263.40625 294.292969 263.515625 C 293.183594 263.625 292.074219 263.707031 290.964844 263.761719 C 289.851562 263.816406 288.742188 263.84375 287.628906 263.84375 C 286.515625 263.84375 285.402344 263.816406 284.289062 263.761719 C 283.179688 263.707031 282.070312 263.625 280.960938 263.515625 C 279.855469 263.40625 278.75 263.269531 277.648438 263.105469 C 276.546875 262.941406 275.453125 262.753906 274.359375 262.535156 C 273.269531 262.320312 272.183594 262.074219 271.105469 261.804688 C 270.023438 261.535156 268.953125 261.238281 267.886719 260.914062 C 266.820312 260.589844 265.765625 260.242188 264.71875 259.867188 C 263.671875 259.492188 262.632812 259.09375 261.605469 258.667969 C 260.574219 258.242188 259.558594 257.789062 258.550781 257.3125 C 257.546875 256.835938 256.550781 256.335938 255.570312 255.8125 C 254.589844 255.289062 253.621094 254.738281 252.667969 254.167969 C 251.710938 253.59375 250.773438 253 249.847656 252.382812 C 248.921875 251.765625 248.011719 251.125 247.117188 250.460938 C 246.222656 249.796875 245.347656 249.113281 244.488281 248.40625 C 243.625 247.699219 242.785156 246.972656 241.960938 246.226562 C 241.136719 245.480469 240.328125 244.710938 239.542969 243.925781 C 238.753906 243.136719 237.988281 242.332031 237.242188 241.507812 C 236.492188 240.683594 235.765625 239.839844 235.058594 238.980469 C 234.355469 238.121094 233.667969 237.242188 233.007812 236.347656 C 232.34375 235.453125 231.703125 234.546875 231.085938 233.621094 C 230.464844 232.695312 229.871094 231.753906 229.300781 230.800781 C 228.726562 229.84375 228.179688 228.878906 227.652344 227.894531 C 227.128906 226.914062 226.628906 225.921875 226.152344 224.914062 C 225.675781 223.910156 225.226562 222.890625 224.800781 221.863281 C 224.375 220.835938 223.972656 219.796875 223.597656 218.75 C 223.222656 217.703125 222.875 216.644531 222.550781 215.578125 C 222.230469 214.515625 221.933594 213.441406 221.664062 212.363281 C 221.390625 211.285156 221.148438 210.199219 220.929688 209.105469 C 220.714844 208.015625 220.523438 206.917969 220.359375 205.816406 C 220.195312 204.714844 220.0625 203.613281 219.953125 202.503906 C 219.84375 201.398438 219.761719 200.289062 219.707031 199.175781 C 219.652344 198.066406 219.625 196.953125 219.625 195.839844 C 219.625 194.726562 219.652344 193.613281 219.707031 192.503906 C 219.761719 191.390625 219.84375 190.28125 219.953125 189.175781 C 220.0625 188.066406 220.195312 186.960938 220.359375 185.859375 C 220.523438 184.761719 220.714844 183.664062 220.929688 182.574219 C 221.148438 181.480469 221.390625 180.394531 221.664062 179.316406 C 221.933594 178.238281 222.230469 177.164062 222.550781 176.097656 C 222.875 175.035156 223.222656 173.976562 223.597656 172.929688 C 223.972656 171.882812 224.375 170.84375 224.800781 169.816406 C 225.226562 168.789062 225.675781 167.769531 226.152344 166.765625 C 226.628906 165.757812 227.128906 164.765625 227.652344 163.78125 C 228.179688 162.800781 228.726562 161.832031 229.300781 160.878906 C 229.871094 159.925781 230.464844 158.984375 231.085938 158.058594 C 231.703125 157.132812 232.34375 156.222656 233.007812 155.328125 C 233.667969 154.4375 234.355469 153.558594 235.058594 152.699219 C 235.765625 151.839844 236.492188 150.996094 237.242188 150.171875 C 237.988281 149.347656 238.753906 148.539062 239.542969 147.753906 C 240.328125 146.96875 241.136719 146.199219 241.960938 145.453125 C 242.785156 144.703125 243.625 143.976562 244.488281 143.273438 C 245.347656 142.566406 246.222656 141.882812 247.117188 141.21875 C 248.011719 140.554688 248.921875 139.914062 249.847656 139.296875 C 250.773438 138.679688 251.710938 138.082031 252.667969 137.511719 C 253.621094 136.9375 254.589844 136.390625 255.570312 135.867188 C 256.550781 135.339844 257.546875 134.839844 258.550781 134.367188 C 259.558594 133.890625 260.574219 133.4375 261.605469 133.011719 C 262.632812 132.585938 263.671875 132.1875 264.71875 131.8125 C 265.765625 131.4375 266.820312 131.085938 267.886719 130.765625 C 268.953125 130.441406 270.023438 130.144531 271.105469 129.875 C 272.183594 129.605469 273.269531 129.359375 274.359375 129.144531 C 275.453125 128.925781 276.546875 128.734375 277.648438 128.570312 C 278.75 128.410156 279.855469 128.273438 280.960938 128.164062 C 282.070312 128.054688 283.179688 127.972656 284.289062 127.917969 C 285.402344 127.863281 286.515625 127.835938 287.628906 127.835938 C 288.742188 127.835938 289.851562 127.863281 290.964844 127.917969 C 292.074219 127.972656 293.183594 128.054688 294.292969 128.164062 C 295.402344 128.273438 296.503906 128.410156 297.605469 128.570312 C 298.707031 128.734375 299.804688 128.925781 300.894531 129.144531 C 301.984375 129.359375 303.070312 129.605469 304.152344 129.875 C 305.230469 130.144531 306.304688 130.441406 307.367188 130.765625 C 308.433594 131.085938 309.488281 131.4375 310.539062 131.8125 C 311.585938 132.1875 312.621094 132.585938 313.652344 133.011719 C 314.679688 133.4375 315.695312 133.890625 316.703125 134.367188 C 317.707031 134.839844 318.703125 135.339844 319.683594 135.867188 C 320.664062 136.390625 321.632812 136.9375 322.589844 137.511719 C 323.542969 138.082031 324.484375 138.679688 325.40625 139.296875 C 326.332031 139.914062 327.242188 140.554688 328.136719 141.21875 C 329.03125 141.882812 329.90625 142.566406 330.769531 143.273438 C 331.628906 143.976562 332.472656 144.703125 333.296875 145.453125 C 334.121094 146.199219 334.925781 146.96875 335.714844 147.753906 C 336.5 148.539062 337.265625 149.347656 338.015625 150.171875 C 338.761719 150.996094 339.488281 151.839844 340.195312 152.699219 C 340.902344 153.558594 341.585938 154.4375 342.25 155.328125 C 342.910156 156.222656 343.550781 157.132812 344.171875 158.058594 C 344.789062 158.984375 345.382812 159.925781 345.957031 160.878906 C 346.527344 161.832031 347.078125 162.800781 347.601562 163.78125 C 348.125 164.765625 348.625 165.757812 349.101562 166.765625 C 349.578125 167.769531 350.027344 168.789062 350.453125 169.816406 C 350.878906 170.84375 351.28125 171.882812 351.65625 172.929688 C 352.03125 173.976562 352.378906 175.035156 352.703125 176.097656 C 353.027344 177.164062 353.324219 178.238281 353.59375 179.316406 C 353.863281 180.394531 354.105469 181.480469 354.324219 182.574219 C 354.542969 183.664062 354.730469 184.761719 354.894531 185.859375 C 355.058594 186.960938 355.195312 188.066406 355.304688 189.175781 C 355.414062 190.28125 355.496094 191.390625 355.550781 192.503906 C 355.601562 193.613281 355.628906 194.726562 355.628906 195.839844 Z M 355.628906 195.839844 " fill-opacity="1" fill-rule="nonzero"/><path fill="#ffffff" d="M 298.183594 160.988281 C 293.566406 176.429688 288.953125 191.875 284.328125 207.316406 C 281.777344 203.007812 279.226562 198.699219 276.679688 194.386719 C 274.136719 190.085938 267.417969 193.992188 269.976562 198.308594 C 274.039062 205.167969 278.09375 212.03125 282.160156 218.890625 C 283.886719 221.808594 288.300781 221.152344 289.257812 217.964844 C 294.734375 199.664062 300.203125 181.355469 305.679688 163.054688 C 307.117188 158.257812 299.621094 156.199219 298.191406 160.988281 Z M 298.183594 160.988281 " fill-opacity="1" fill-rule="nonzero"/><path fill="#a0616a" d="M 248.863281 216.714844 C 251.796875 221.472656 251.609375 226.875 248.453125 228.773438 C 245.292969 230.675781 240.355469 228.355469 237.421875 223.597656 C 236.226562 221.710938 235.515625 219.558594 235.351562 217.328125 L 223.191406 197 L 233.265625 191.378906 L 244.179688 212.015625 C 246.117188 213.183594 247.726562 214.796875 248.871094 216.714844 Z M 248.863281 216.714844 " fill-opacity="1" fill-rule="nonzero"/><path fill="#d7d7d8" d="M 159.417969 102.757812 C 159.417969 102.757812 174.320312 95.035156 177.90625 99.015625 C 181.488281 103.003906 244.277344 206.105469 244.277344 206.105469 L 220.835938 214.605469 L 159.410156 102.757812 Z M 159.417969 102.757812 " fill-opacity="1" fill-rule="nonzero"/></svg>